<?xml version="1.0" encoding="UTF-8"?>
<svg width="173px" height="200px" viewBox="0 0 173 200" version="1.1" xmlns="http://www.w3.org/2000/svg" xmlns:xlink="http://www.w3.org/1999/xlink">
    <!-- Generator: Sketch 58 (84663) - https://sketch.com -->
    <title>Group</title>
    <desc>Created with Sketch.</desc>
    <g id="Page-1" stroke="none" stroke-width="1" fill="none" fill-rule="evenodd">
        <g id="Group" transform="translate(-27.000000, -9.000000)">
            <path d="M95.1171875,203.355315 C140.680679,203.355315 187.0625,194.581877 171.75,126.937346 C167.446954,107.928201 203.589844,95.1425926 203.589844,62.9021897 C203.589844,42.0662522 192.083779,32.0350022 144.617188,26.7889085 C73.6636342,18.9469932 20,70.9793158 20,120.132658 C20,169.286001 49.5536956,203.355315 95.1171875,203.355315 Z" id="Oval" fill="#E9F0F7" transform="translate(111.794922, 114.677657) rotate(-73.000000) translate(-111.794922, -114.677657) "></path>
            <g id="001-drug" transform="translate(65.000000, 68.132658)" fill="#92AFCC" fill-rule="nonzero">
                <path d="M4.3030303,7.63636364 C4.30501638,5.82972118 5.74875283,4.36565041 7.53030303,4.36363636 L63.469697,4.36363636 C65.2512472,4.36565041 66.6949836,5.82972118 66.6969697,7.63636364 L66.6969697,17.4545455 L71,17.4545455 L71,7.63636364 C70.9953461,3.42087286 67.6266393,0.00471943748 63.469697,0 L7.53030303,0 C3.37336074,0.00471943748 0.00465388973,3.42087286 0,7.63636364 L0,24 L4.3030303,24 L4.3030303,7.63636364 Z" id="Path"></path>
                <path d="M4.25,120.553191 L4.25,28 L0,28 L0,120.553191 C0.00459653546,124.664042 3.33178763,127.995398 7.4375,128 L51,128 L51,123.744681 L7.4375,123.744681 C5.67790552,123.742717 4.2519616,122.314988 4.25,120.553191 Z" id="Path"></path>
                <path d="M32,18.09375 C31.9937363,12.5217533 27.5314438,8.00633832 22.025,8 L20.975,8 C15.4685562,8.00633832 11.0062637,12.5217533 11,18.09375 L11,31.90625 C11.0062637,37.4782467 15.4685562,41.9936617 20.975,42 L22.025,42 C27.5314438,41.9936617 31.9937363,37.4782467 32,31.90625 L32,18.09375 Z M20.975,12.25 L22.025,12.25 C25.2129572,12.2536303 27.7964124,14.8678409 27.8,18.09375 L27.8,22.875 L15.2,22.875 L15.2,18.09375 C15.2035876,14.8678409 17.7870428,12.2536303 20.975,12.25 Z M22.025,37.75 L20.975,37.75 C17.7870428,37.7463697 15.2035876,35.1321591 15.2,31.90625 L15.2,27.125 L27.8,27.125 L27.8,31.90625 C27.7964124,35.1321591 25.2129572,37.7463697 22.025,37.75 Z" id="Shape"></path>
                <path d="M32,57.09375 C31.9937363,51.5217533 27.5314438,47.0063383 22.025,47 L20.975,47 C15.4685562,47.0063383 11.0062637,51.5217533 11,57.09375 L11,70.90625 C11.0062637,76.4782467 15.4685562,80.9936617 20.975,81 L22.025,81 C27.5314438,80.9936617 31.9937363,76.4782467 32,70.90625 L32,57.09375 Z M20.975,51.25 L22.025,51.25 C25.2129572,51.2536303 27.7964124,53.8678409 27.8,57.09375 L27.8,61.875 L15.2,61.875 L15.2,57.09375 C15.2035876,53.8678409 17.7870428,51.2536303 20.975,51.25 L20.975,51.25 Z M22.025,76.75 L20.975,76.75 C17.7870428,76.7463697 15.2035876,74.1321591 15.2,70.90625 L15.2,66.125 L27.8,66.125 L27.8,70.90625 C27.7964124,74.1321591 25.2129572,76.7463697 22.025,76.75 Z" id="Shape"></path>
                <path d="M22.025,86 L20.975,86 C15.4685562,86.0063383 11.0062637,90.5217533 11,96.09375 L11,109.90625 C11.0062637,115.478247 15.4685562,119.993662 20.975,120 L22.025,120 C27.5314438,119.993662 31.9937363,115.478247 32,109.90625 L32,96.09375 C31.9937363,90.5217533 27.5314438,86.0063383 22.025,86 L22.025,86 Z M20.975,90.25 L22.025,90.25 C25.2129572,90.2536303 27.7964124,92.8678409 27.8,96.09375 L27.8,100.875 L15.2,100.875 L15.2,96.09375 C15.2035876,92.8678409 17.7870428,90.2536303 20.975,90.25 L20.975,90.25 Z M22.025,115.75 L20.975,115.75 C17.7870428,115.74637 15.2035876,113.132159 15.2,109.90625 L15.2,105.125 L27.8,105.125 L27.8,109.90625 C27.7964124,113.132159 25.2129572,115.74637 22.025,115.75 Z" id="Shape"></path>
                <path d="M125.238372,20.8571429 L60.1627907,20.8571429 L60.1627907,18.1785714 C60.1564784,12.5597513 55.6595945,8.00639158 50.1104651,8 L49.0523256,8 C43.5031962,8.00639158 39.0063123,12.5597513 39,18.1785714 L39,32.1071429 C39.0063123,37.725963 43.5031962,42.2793227 49.0523256,42.2857143 L50.1104651,42.2857143 C51.5060293,42.2845279 52.8860664,41.9891726 54.1627427,41.4184464 C54.8928915,43.2366136 56.6371928,44.426452 58.5755814,44.4285714 L59.1533256,44.4285714 L57.1525424,49.4933214 C55.2760464,47.6194817 52.7459819,46.5697094 50.1104651,46.5714286 L49.0523256,46.5714286 C43.5031962,46.5778202 39.0063123,51.1311798 39,56.75 L39,70.6785714 C39.0063123,76.2973916 43.5031962,80.8507513 49.0523256,80.8571429 L50.1104651,80.8571429 C52.1969922,80.8595846 54.231983,80.2009117 55.9302326,78.9734375 L55.9302326,87.0265625 C54.231983,85.7990883 52.1969922,85.1404154 50.1104651,85.1428571 L49.0523256,85.1428571 C43.5031962,85.1492487 39.0063123,89.7026084 39,95.3214286 L39,109.25 C39.0063123,114.86882 43.5031962,119.42218 49.0523256,119.428571 L50.1104651,119.428571 C52.1969922,119.431013 54.231983,118.77234 55.9302326,117.544866 L55.9302326,120.5 C55.9348102,124.640214 59.2483466,127.995365 63.3372093,128 L120.476744,128 C124.565607,127.995365 127.879143,124.640214 127.883721,120.5 L127.883721,68 L123.651163,68 L123.651163,120.5 C123.649209,122.274381 122.229117,123.712308 120.476744,123.714286 L63.3372093,123.714286 C61.5848361,123.712308 60.1647442,122.274381 60.1627907,120.5 L60.1627907,53.4127679 L63.711923,44.4285714 L120.102031,44.4285714 L123.651163,53.4127679 L123.651163,63.7142857 L127.883721,63.7142857 L127.883721,53 C127.883725,52.7274206 127.832341,52.457346 127.732328,52.2042768 L124.660628,44.4285714 L125.238372,44.4285714 C127.866902,44.4255307 129.996997,42.2686838 130,39.6071429 L130,25.6785714 C129.996997,23.0170305 127.866902,20.8601836 125.238372,20.8571429 Z M49.0523256,50.8571429 L50.1104651,50.8571429 C53.3231352,50.8608037 55.9266171,53.4969824 55.9302326,56.75 L55.9302326,61.5714286 L43.2325581,61.5714286 L43.2325581,56.75 C43.2361736,53.4969824 45.8396555,50.8608037 49.0523256,50.8571429 L49.0523256,50.8571429 Z M50.1104651,76.5714286 L49.0523256,76.5714286 C45.8396555,76.5677677 43.2361736,73.931589 43.2325581,70.6785714 L43.2325581,65.8571429 L55.9302326,65.8571429 L55.9302326,70.6785714 C55.9266171,73.931589 53.3231352,76.5677677 50.1104651,76.5714286 Z M49.0523256,89.4285714 L50.1104651,89.4285714 C53.3231352,89.4322323 55.9266171,92.068411 55.9302326,95.3214286 L55.9302326,100.142857 L43.2325581,100.142857 L43.2325581,95.3214286 C43.2361736,92.068411 45.8396555,89.4322323 49.0523256,89.4285714 L49.0523256,89.4285714 Z M50.1104651,115.142857 L49.0523256,115.142857 C45.8396555,115.139196 43.2361736,112.503018 43.2325581,109.25 L43.2325581,104.428571 L55.9302326,104.428571 L55.9302326,109.25 C55.9266171,112.503018 53.3231352,115.139196 50.1104651,115.142857 Z M49.0523256,12.2857143 L50.1104651,12.2857143 C53.3231352,12.2893751 55.9266171,14.9255539 55.9302326,18.1785714 L55.9302326,21.6714286 C55.4117102,22.0236821 54.966024,22.4749655 54.6181395,23 L43.2325581,23 L43.2325581,18.1785714 C43.2361736,14.9255539 45.8396555,12.2893751 49.0523256,12.2857143 L49.0523256,12.2857143 Z M49.0523256,38.0000614 C45.8396555,37.9963391 43.2361736,35.3601604 43.2325581,32.1071429 L43.2325581,27.2857143 L53.8139535,27.2857143 L53.8139535,36.6546339 C52.7740162,37.529944 51.4627635,38.0062827 50.1104651,38.0000614 L49.0523256,38.0000614 Z M125.767442,39.6071429 C125.767442,39.9028689 125.53043,40.1425176 125.238372,40.1428571 L58.5755814,40.1428571 C58.2835232,40.1425176 58.0465116,39.9028689 58.0465116,39.6071429 L58.0465116,25.6785714 C58.0465116,25.3828453 58.2835232,25.1431966 58.5755814,25.1428571 L125.238372,25.1428571 C125.53043,25.1431966 125.767442,25.3828453 125.767442,25.6785714 L125.767442,39.6071429 Z" id="Shape"></path>
                <path d="M65,85.5 C65,100.687831 77.3121694,113 92.5,113 C107.687831,113 120,100.687831 120,85.5 C120,70.3121694 107.687831,58 92.5,58 C77.3192915,58.0171805 65.0171805,70.3192915 65,85.5 Z M115.769231,85.5 C115.769231,98.3512413 105.351241,108.769231 92.5,108.769231 C79.6487587,108.769231 69.2307692,98.3512413 69.2307692,85.5 C69.2307692,72.6487587 79.6487587,62.2307692 92.5,62.2307692 C105.345201,62.2453412 115.754659,72.6547995 115.769231,85.5 L115.769231,85.5 Z" id="Shape"></path>
                <path d="M83.5,70.125 L83.5,76.5 L77.125,76.5 C75.9513949,76.5 75,77.4513949 75,78.625 L75,91.375 C75,92.5486051 75.9513949,93.5 77.125,93.5 L83.5,93.5 L83.5,99.875 C83.5,101.048605 84.4513949,102 85.625,102 L98.375,102 C99.5486051,102 100.5,101.048605 100.5,99.875 L100.5,93.5 L106.875,93.5 C108.048605,93.5 109,92.5486051 109,91.375 L109,78.625 C109,77.4513949 108.048605,76.5 106.875,76.5 L100.5,76.5 L100.5,70.125 C100.5,68.9513949 99.5486051,68 98.375,68 L85.625,68 C84.4513949,68 83.5,68.9513949 83.5,70.125 Z M87.75,78.625 L87.75,72.25 L96.25,72.25 L96.25,78.625 C96.25,79.7986051 97.2013949,80.75 98.375,80.75 L104.75,80.75 L104.75,89.25 L98.375,89.25 C97.2013949,89.25 96.25,90.2013949 96.25,91.375 L96.25,97.75 L87.75,97.75 L87.75,91.375 C87.75,90.2013949 86.7986051,89.25 85.625,89.25 L79.25,89.25 L79.25,80.75 L85.625,80.75 C86.7986051,80.75 87.75,79.7986051 87.75,78.625 Z" id="Shape"></path>
            </g>
        </g>
    </g>
</svg>