<?xml version="1.0" encoding="UTF-8"?>
<svg width="206px" height="206px" viewBox="0 0 206 206" version="1.1" xmlns="http://www.w3.org/2000/svg" xmlns:xlink="http://www.w3.org/1999/xlink">
    <!-- Generator: Sketch 58 (84663) - https://sketch.com -->
    <title>Group 2</title>
    <desc>Created with Sketch.</desc>
    <g id="Page-1" stroke="none" stroke-width="1" fill="none" fill-rule="evenodd">
        <g id="Group-2" transform="translate(3.000000, 3.000000)">
            <circle id="Oval" stroke="#E9F0F7" stroke-width="6" fill="#F7FBFC" cx="100" cy="100" r="100"></circle>
            <g id="006-cash-back" transform="translate(45.000000, 45.000000)" fill="#92AFCC" fill-rule="nonzero">
                <path d="M11.2565,67.3681538 C10.1506653,63.396344 9.589912,59.2701993 9.589912,55.1042331 C9.589912,44.3892581 13.3503082,34.0841207 20.2090167,25.8951151 C22.895566,28.529571 26.5677273,30.1577288 30.6134379,30.1577288 C38.8250818,30.1577288 45.505603,23.4593358 45.505603,15.2262037 C45.505603,13.6710158 45.2666603,12.1711475 44.824627,10.760393 C48.1341878,10.0007726 51.5367066,9.61525818 54.9594057,9.61525818 C65.9645113,9.61525818 76.3193406,13.4828865 84.5189623,20.5825073 L81.0393721,20.5825073 C79.5677167,20.5825073 78.3706415,21.7829617 78.3706415,23.2582914 L78.3706415,27.5215509 C78.3706415,28.9970959 79.5679314,30.197335 81.0393721,30.197335 L98.1187327,30.197335 C99.7076053,30.197335 101,28.9013093 101,27.3084525 L101,10.1837358 C101,8.70819084 99.8027101,7.50795177 98.3312694,7.50795177 L94.0790333,7.50795177 C92.6073779,7.50795177 91.4103027,8.70840609 91.4103027,10.1837358 L91.4103027,13.8501046 C81.3774986,4.89114644 68.5744187,0 54.9589763,0 C49.310224,0 43.7520682,0.85088685 38.4319963,2.52532368 C36.157854,1.11263196 33.4794627,0.294463246 30.6132232,0.294463246 C22.4015793,0.294463246 15.7210581,6.99285634 15.7210581,15.2259884 C15.7210581,18.2265861 16.6115653,21.0211887 18.1371062,23.3641949 C10.5456829,32.2051955 6.37824682,43.4279475 6.37824682,55.1042331 C6.37824682,59.3816992 6.93105684,63.6212812 8.02186371,67.7147077 L4.98967394,68.6368426 C3.80955873,64.2446478 3.2114505,59.6948893 3.2114505,55.1042331 C3.2114505,44.0984541 6.58198146,33.6105687 12.9585108,24.7745188 C13.4784743,24.054074 13.3174616,23.0475608 12.598916,22.5264383 C11.880585,22.0051006 10.8765102,22.166754 10.3567615,22.8869836 C3.58135017,32.2757978 0,43.4163239 0,55.1042331 C0,60.1746836 0.687631255,65.1992856 2.04357225,70.0387718 C2.40574332,71.4534008 4.0089997,72.3339923 5.38984398,71.8798129 L9.46002848,70.6421201 C10.8367938,70.2234571 11.642501,68.7548001 11.2565,67.3681538 L11.2565,67.3681538 Z M91.8688666,18.7358698 C92.3254984,19.2033947 93.0187115,19.3467519 93.6226162,19.0996438 C94.2267355,18.8523205 94.6215385,18.2631788 94.6215385,17.6090313 L94.6215385,10.7278901 L97.7883348,10.7278901 L97.7883348,26.9773966 L81.5816626,26.9773966 L81.5816626,23.8022305 L88.5629554,23.8022305 C89.2085087,23.8022305 89.7913744,23.4145636 90.0423394,22.8181033 C90.2933044,22.221643 90.1636356,21.5326249 89.7130149,21.0687591 C80.5194087,11.6063291 68.1768248,6.39510456 54.9589763,6.39510456 C51.08673,6.39510456 47.2374548,6.85552626 43.5036794,7.76366985 C42.9248927,6.76275311 42.2344705,5.83523694 41.4478702,4.9983414 C45.8267695,3.81898166 50.360241,3.22015362 54.9589763,3.22015362 C68.983176,3.22015362 82.0913213,8.73036169 91.8688666,18.7358698 Z M30.6132232,3.51440162 C37.0539429,3.51440162 42.2939378,8.76824585 42.2939378,15.2259884 C42.2939378,21.683731 37.0539429,26.9375752 30.6132232,26.9375752 C24.1725035,26.9375752 18.9325086,21.683731 18.9325086,15.2259884 C18.9325086,8.76824585 24.1725035,3.51440162 30.6132232,3.51440162 Z" id="Shape"></path>
                <path d="M91.2760367,91.4743836 C81.5639544,101.331991 68.6510619,106.760973 54.9157805,106.760973 C47.712891,106.760973 40.7555448,105.289455 34.2370194,102.387344 C33.4297769,102.028126 32.4889896,102.400552 32.1348611,103.21989 C31.7807325,104.039012 32.1480876,104.994329 32.9551167,105.353547 C39.8802499,108.436675 47.2689503,110 54.9157805,110 C69.5033171,110 83.2176921,104.234319 93.5326463,93.7645896 C94.1557846,93.1321142 94.1557846,92.1066424 93.5326463,91.4741671 C92.909508,90.8419082 91.899175,90.8419082 91.2760367,91.4743836 Z" id="Path"></path>
                <path d="M107.83362,39.9365446 C107.631816,39.237971 107.168957,38.6640044 106.530485,38.3200979 C105.893517,37.9770523 105.162516,37.9071088 104.472091,38.122965 L100.412623,39.3937835 C99.0392872,39.823559 98.2453843,41.2981819 98.6427651,42.6813403 C99.8776299,46.9782348 100.470588,51.4498803 100.405324,55.971885 C100.228639,68.2197344 95.3121511,79.6198693 86.5611851,88.0726953 C77.7977673,96.5375731 66.2294976,101.044728 53.988407,100.768183 C43.3834264,100.527362 33.399313,96.6654082 25.4746672,89.8094447 L28.9607128,89.8094447 C30.4323744,89.8094447 31.6294547,88.6092153 31.6294547,87.134162 L31.6294547,82.871486 C31.6294547,81.3964327 30.4321597,80.1962032 28.9607128,80.1962032 L11.8812795,80.1962032 C10.2924002,80.1962032 9,81.4919861 9,83.0845445 L9,100.205837 C9,101.681106 10.197295,102.88112 11.6687419,102.88112 L15.9209961,102.88112 C17.3926578,102.88112 18.5897381,101.680891 18.5897381,100.205837 L18.5897381,96.543599 C21.0008587,98.6926919 23.5936024,100.624207 26.3312581,102.30909 C27.0873766,102.774376 28.0757836,102.536998 28.5397166,101.779457 C29.0036496,101.021701 28.7670674,100.030656 28.0113783,99.565586 C24.4229283,97.357095 21.0985401,94.697953 18.1309575,91.661547 C17.6741091,91.1943248 16.9811078,91.0507793 16.3769858,91.2978411 C15.7728639,91.545118 15.3782739,92.1341494 15.3782739,92.7881743 L15.3782739,99.6622155 L12.2114641,99.6622155 L12.2114641,83.4157535 L28.4182052,83.4157535 L28.4182052,86.5903248 L21.4297982,86.5903248 C20.7842422,86.5903248 20.201374,86.9779191 19.9504079,87.5742676 C19.6992271,88.1704009 19.8288965,88.85929 20.2793044,89.3230688 C29.1829111,98.4888874 41.128596,103.696768 53.915629,103.987087 C54.2971232,103.995696 54.677544,104 55.0579648,104 C67.738085,104 79.6781881,99.1924108 88.7896093,90.3913741 C98.161872,81.338541 103.427437,69.1313664 103.616359,56.0188009 C103.683555,51.3609983 103.097681,46.7518333 101.87441,42.3092413 L104.898884,41.3625299 C106.152855,45.8804456 106.788321,50.566656 106.788321,55.2999976 C106.788321,66.7128299 103.183985,77.515325 96.3649635,86.5393199 C95.8295406,87.2480084 95.9684414,88.2577764 96.6753972,88.7945116 C97.3823529,89.3312468 98.3894375,89.1917903 98.9250751,88.4833171 C106.170245,78.8946096 110,67.4197967 110,55.2993519 C110,50.0774824 109.271146,44.9087699 107.83362,39.9365446 L107.83362,39.9365446 Z" id="Path"></path>
                <path d="M30.4096396,78 L79.5903871,78 C82.5733057,78 85,75.5509764 85,72.540826 L85,39.7691708 C85,36.7588047 82.5733057,34.3097811 79.5903871,34.3097811 L77.8253048,34.3097811 C76.2457731,30.1322887 72.2235145,27.2899802 67.7286149,27.2899802 C67.401336,27.2899802 67.0746986,27.3087491 66.7495574,27.3383048 C65.9949564,22.0653102 61.4891546,18 56.0585925,18 C50.101306,18 45.2545442,22.8911437 45.2545442,28.9034622 C45.2545442,30.810128 45.7590367,32.6753728 46.6823007,34.3095653 L30.4096396,34.3095653 C27.426721,34.3095653 25.0002405,36.7585889 25.0002405,39.768955 L25.0002405,48.3987861 L24.730679,48.3987861 C22.6735896,48.3987861 21,50.0877754 21,52.1637932 L21,60.1457721 C21,62.22179 22.6735896,63.9107792 24.730679,63.9107792 L25.0002405,63.9107792 L25.0002405,72.5406103 C25.0002405,75.5509764 27.4269348,78 30.4096396,78 Z M74.2893684,34.3097811 L65.4449314,34.3097811 C66.09671,33.1622866 66.5353619,31.9049831 66.7358763,30.584685 C67.0640102,30.541538 67.3957781,30.5173757 67.7286149,30.5173757 C70.4616387,30.5171599 72.9460503,32.0093989 74.2893684,34.3097811 L74.2893684,34.3097811 Z M48.4522997,28.9036779 C48.4522997,24.6709574 51.8644644,21.2273955 56.0585925,21.2273955 C60.2527205,21.2273955 63.6648853,24.6709574 63.6648853,28.9036779 C63.6648853,30.9505715 62.880143,32.8628465 61.4551655,34.3097811 L50.6618057,34.3097811 C49.2361869,32.8632779 48.4522997,30.9546705 48.4522997,28.9036779 Z M28.1979959,44.6089695 L29.6563212,44.6089695 C30.5393968,44.6089695 31.2553058,43.8864731 31.2553058,42.9952718 C31.2553058,42.1040706 30.5393968,41.3815741 29.6563212,41.3815741 L28.1979959,41.3815741 L28.1979959,39.768955 C28.1979959,38.5381869 29.1900932,37.5367451 30.4096396,37.5367451 L79.5903871,37.5367451 C80.8099335,37.5367451 81.8022446,38.5381869 81.8022446,39.768955 L81.8022446,72.5403946 C81.8022446,73.7711627 80.8099335,74.7723888 79.5903871,74.7723888 L30.4096396,74.7723888 C29.1900932,74.7723888 28.1979959,73.7711627 28.1979959,72.5403946 L28.1979959,70.9275598 L29.6563212,70.9275598 C30.5393968,70.9275598 31.2553058,70.2050633 31.2553058,69.3138621 C31.2553058,68.4226608 30.5393968,67.7001643 29.6563212,67.7001643 L28.1979959,67.7001643 L28.1979959,63.9103477 L38.902642,63.9103477 C40.9597315,63.9103477 42.6333211,62.2213585 42.6333211,60.1453407 L42.6333211,52.1633617 C42.6333211,50.0873439 40.9597315,48.3983547 38.902642,48.3983547 L28.1979959,48.3983547 L28.1979959,44.6089695 Z M24.1975417,60.1459879 L24.1975417,52.1640089 C24.1975417,51.8673733 24.4367481,51.6261816 24.7304653,51.6261816 L38.9024283,51.6261816 C39.1963593,51.6261816 39.4353519,51.8675891 39.4353519,52.1640089 L39.4353519,60.1459879 C39.4353519,60.4426235 39.1961455,60.6838152 38.9024283,60.6838152 L24.7304653,60.6838152 C24.4367481,60.6838152 24.1975417,60.4424077 24.1975417,60.1459879 Z" id="Shape"></path>
                <path d="M25.7969495,22.1114487 C26.7359375,22.7093176 27.4621842,22.9912378 28.284099,23.1165835 L28.284099,23.3890274 C28.284099,24.2787236 29.0155878,25 29.9178812,25 C30.8201745,25 31.5516634,24.2787236 31.5516634,23.3890274 L31.5516634,22.9429948 C33.4420892,22.3134663 34.6501706,20.6514509 34.9301852,19.0103265 C35.3170071,16.7413965 34.0707021,14.6919293 31.8290569,13.9105645 C30.6954567,13.5153593 29.4447833,13.040467 28.7652784,12.515178 C28.6619657,12.4350601 28.5905424,12.1662775 28.650171,11.8548515 C28.6809683,11.6933235 28.823815,11.1533893 29.3628758,10.9933689 C30.5526099,10.640161 31.3094355,11.2266153 31.3917799,11.2946724 L31.3655695,11.2714124 L31.8172622,11.4572773 C33.4226498,12.1182498 34.7930173,10.1336092 33.5810043,8.90298118 C33.1828245,8.5409431 32.4731777,8.10223305 31.5521002,7.85498753 L31.5521002,7.61097257 C31.5521002,6.72127635 30.8206114,6 29.918318,6 C29.0160247,6 28.2845358,6.72127635 28.2845358,7.61097257 L28.2845358,7.95405804 C26.8228687,8.44294944 25.7381945,9.69511449 25.4393959,11.2580594 C25.1539208,12.7514396 25.6556318,14.2045455 26.7490427,15.0503061 C27.7976775,15.8611766 29.287084,16.4416005 30.7402328,16.9483677 C31.6984417,17.2824076 31.7956386,17.963625 31.7080521,18.4764226 C31.5850816,19.198345 30.9689186,19.9784176 29.9071786,19.9853095 C28.7180997,19.9934935 28.4066327,19.9450351 27.5231234,19.374949 C26.7134402,18.8528905 25.6086714,19.1302879 25.1635313,20.0096463 C24.7863198,20.7539674 25.0881764,21.6602471 25.7969495,22.1114487 L25.7969495,22.1114487 Z" id="Path"></path>
                <path d="M33.3294249,55 L30.6705751,55 C29.747962,55 29,55.6715909 29,56.5 C29,57.3284091 29.747962,58 30.6705751,58 L33.3294249,58 C34.252038,58 35,57.3284091 35,56.5 C34.9997767,55.6713904 34.2518146,55 33.3294249,55 L33.3294249,55 Z" id="Path"></path>
                <path d="M49.6605002,44 L55.3394998,44 C56.2565488,44 57,43.3284091 57,42.5 C57,41.6715909 56.2565488,41 55.3394998,41 L49.6605002,41 C48.7434512,41 48,41.6715909 48,42.5 C48,43.3286096 48.7434512,44 49.6605002,44 Z" id="Path"></path>
                <path d="M61.6605002,44 L67.3394998,44 C68.2565488,44 69,43.3284091 69,42.5 C69,41.6715909 68.2565488,41 67.3394998,41 L61.6605002,41 C60.7434512,41 60,41.6715909 60,42.5 C60.000222,43.3286096 60.7434512,44 61.6605002,44 Z" id="Path"></path>
                <path d="M44,42.5 C44,41.6715909 43.2565488,41 42.3394998,41 L36.6605002,41 C35.7434512,41 35,41.6715909 35,42.5 C35,43.3284091 35.7434512,44 36.6605002,44 L42.3394998,44 C43.2567708,43.9997995 44,43.3284091 44,42.5 Z" id="Path"></path>
                <path d="M74.5334246,44.0672591 L75.9323309,44.0672591 L75.9323309,45.4661654 C75.9323309,46.3132604 76.6190705,47 77.4661655,47 C78.3132604,47 79,46.3132604 79,45.4661654 L79,43.5490772 C79,42.143404 77.856391,41 76.4509228,41 L74.5338347,41 C73.6867397,41 73,41.6867396 73,42.5338346 C72.9995901,43.3807245 73.6863296,44.0672591 74.5334246,44.0672591 L74.5334246,44.0672591 Z" id="Path"></path>
                <path d="M77.5,51 C76.6715909,51 76,51.7299123 76,52.6302611 L76,58.3697389 C76,59.2700877 76.6715909,60 77.5,60 C78.3284091,60 79,59.2700877 79,58.3697389 L79,52.6302611 C79,51.7299123 78.3284091,51 77.5,51 Z" id="Path"></path>
                <path d="M74.5341398,70 L76.451097,70 C77.8566742,70 79,68.856391 79,67.4509228 L79,65.5338346 C79,64.6867396 78.3133074,64 77.4662702,64 C76.6192331,64 75.9325405,64.6867396 75.9325405,65.5338346 L75.9325405,66.9327409 L74.5337298,66.9327409 C73.6866926,66.9327409 73,67.6194805 73,68.4665755 C73.0004101,69.3132604 73.6871027,70 74.5341398,70 L74.5341398,70 Z" id="Path"></path>
                <path d="M42.3394998,67 L36.6605002,67 C35.7434512,67 35,67.6715909 35,68.5 C35,69.3284091 35.7434512,70 36.6605002,70 L42.3394998,70 C43.2565488,70 44,69.3284091 44,68.5 C43.999778,67.6713904 43.2563268,67 42.3394998,67 Z" id="Path"></path>
                <path d="M48.6605002,70 L54.3394998,70 C55.2565488,70 56,69.3284091 56,68.5 C56,67.6715909 55.2565488,67 54.3394998,67 L48.6605002,67 C47.7434512,67 47,67.6715909 47,68.5 C47.000222,69.3284091 47.7434512,70 48.6605002,70 Z" id="Path"></path>
                <path d="M61.6605002,70 L67.3394998,70 C68.2565488,70 69,69.3284091 69,68.5 C69,67.6715909 68.2565488,67 67.3394998,67 L61.6605002,67 C60.7434512,67 60,67.6715909 60,68.5 C60,69.3284091 60.7434512,70 61.6605002,70 Z" id="Path"></path>
            </g>
        </g>
    </g>
</svg>