<?xml version="1.0" encoding="UTF-8"?>
<svg width="206px" height="206px" viewBox="0 0 206 206" version="1.1" xmlns="http://www.w3.org/2000/svg" xmlns:xlink="http://www.w3.org/1999/xlink">
    <!-- Generator: Sketch 58 (84663) - https://sketch.com -->
    <title>Group 2</title>
    <desc>Created with Sketch.</desc>
    <g id="Page-1" stroke="none" stroke-width="1" fill="none" fill-rule="evenodd">
        <g id="Group-2" transform="translate(3.000000, 3.000000)">
            <circle id="Oval" stroke="#E9F0F7" stroke-width="6" fill="#F7FBFC" cx="100" cy="100" r="100"></circle>
            <g id="004-delivery-truck" transform="translate(45.000000, 45.000000)" fill="#92AFCC" fill-rule="nonzero">
                <path d="M106.962951,92.8199344 C107.155237,88.4129663 107.398227,74.7843028 103.690432,65.7332924 C103.584513,65.474588 103.412637,65.2480076 103.191991,65.0758236 C102.991756,64.9194874 98.5356555,61.4856587 92.4542527,60.2799424 C92.438569,56.1391741 92.2091145,43.7224376 90.1186726,35.464887 C89.5860718,33.3564896 87.8561398,31.7740673 85.7104827,31.4331258 C84.5705151,31.2525896 80.5677377,31.0480675 74.9087202,30.8634623 C74.9972363,28.4505306 74.9953027,26.0112572 74.8990521,23.5886883 C74.7568247,20.0621287 71.8684484,17.1861847 68.3215722,17.0411989 C66.9409782,16.98616 65.5408332,16.9863742 64.1589502,17.0411989 C60.6140075,17.1859705 57.7256312,20.0619145 57.583189,23.5895449 C57.4923095,25.8840466 57.4873681,28.1877572 57.5612748,30.4627704 C48.9421227,30.3291351 39.510212,30.269813 31.0057871,30.3488377 C30.1156843,30.3569758 29.4011098,31.0827613 29.4092739,31.9698088 C29.417438,32.8519305 30.1373836,33.5612258 31.0201818,33.5612258 L31.0354358,33.5612258 C54.2515874,33.3472808 82.3232363,34.1497353 85.2045227,34.6056803 C86.0740004,34.7438129 86.7763288,35.3888605 86.9937519,36.2499946 C87.035217,36.4136123 87.0756079,36.5797998 87.115569,36.7472723 L72.4141548,36.7472723 C69.8796282,36.7472723 67.7404164,38.5564893 67.3274843,41.0490883 L64.6395584,57.2703631 C64.3924867,58.7624102 64.8135829,60.2795141 65.7949949,61.4327614 C66.7764069,62.5857945 68.2094231,63.2471182 69.7264437,63.2471182 L90.7320551,63.2471182 C95.6730606,63.9330701 99.7164437,66.5513805 100.872739,67.3636864 C104.08102,75.626591 103.912367,88.2170106 103.745647,92.5096177 L92.0507737,92.5096177 C90.5191437,86.3814521 84.953154,81.8265 78.3378614,81.8265 C75.8845462,81.8265 73.467325,82.4638378 71.3474493,83.6695541 C70.574437,84.1092229 70.3052362,85.0900721 70.7465278,85.8606169 C71.1871749,86.6311617 72.1713799,86.8992891 72.9443923,86.4596202 C74.5785034,85.5301693 76.4435729,85.038888 78.3378614,85.038888 C84.3535216,85.038888 89.2476909,89.9174347 89.2476909,95.9138925 C89.2476909,101.909279 84.3535216,106.786755 78.3378614,106.786755 C72.3234902,106.786755 67.4301803,101.909279 67.4301803,95.9138925 C67.4301803,93.9532649 67.9576248,92.0352551 68.9557947,90.3675974 C69.4116958,89.6058331 69.1616162,88.6198441 68.3971976,88.1653983 C67.6329939,87.7109524 66.6440624,87.9600196 66.1879464,88.7222122 C65.4811063,89.9033002 64.957529,91.1807599 64.6264529,92.5098319 L37.9766483,92.5098319 C36.4452331,86.3816663 30.8792434,81.8265 24.2641656,81.8265 C17.6490878,81.8265 12.0830981,86.3816663 10.5516829,92.5098319 L6.33040819,92.5098319 L6.33040819,44.6979328 C6.33040819,38.8710891 10.9014506,34.1188964 16.7368559,33.8792522 C19.1063815,33.7826664 21.7631549,33.7051408 24.6326248,33.6490311 C25.5225128,33.63147 26.2295678,32.8986172 26.2119505,32.0115698 C26.194548,31.1245224 25.4554812,30.4212236 24.5692455,30.4372855 C21.677002,30.4940377 18.9974551,30.5719916 16.6047262,30.6696482 C9.03638107,30.9803932 3.1079479,37.1421819 3.1079479,44.6979328 L3.1079479,92.7963769 C2.468784,93.0276689 1.88010867,93.3925961 1.38295732,93.8862331 C0.49113569,94.7749938 0,95.956296 0,97.212768 C0,99.8070926 2.11729756,101.917846 4.72014484,101.917846 L11.4838954,101.917846 C13.7496509,106.689955 18.6255584,110 24.2643805,110 C29.9032026,110 34.77911,106.689955 37.0448655,101.917846 L65.5590951,101.917846 C67.8244208,106.689527 72.6998986,110 78.3380762,110 C83.9771131,110 88.8534503,106.689527 91.1192058,101.917846 L105.279855,101.917846 C106.539921,101.917846 107.725221,101.428278 108.617043,100.539303 C109.508649,99.6503281 110,98.4690259 110,97.212768 C110,95.2101653 108.736497,93.4971058 106.962951,92.8199344 L106.962951,92.8199344 Z M60.8030711,23.7182546 C60.8784817,21.8510005 62.4103266,20.3283286 64.2889314,20.2514454 C65.5842319,20.199833 66.8977943,20.199833 68.1913761,20.2514454 C70.0716996,20.3283286 71.6035446,21.8510005 71.6787403,23.7171838 C71.771983,26.0643687 71.7737018,28.428258 71.6873341,30.7660199 C68.398057,30.6730748 64.7063752,30.5880536 60.788032,30.517381 C60.7111174,28.2678528 60.7128362,25.9885563 60.8030711,23.7182546 L60.8030711,23.7182546 Z M89.2272806,60.0349442 L75.7330805,60.0349442 L75.7330805,39.9598745 L87.7607486,39.9598745 C89.0059903,47.3117459 89.2012844,56.4180094 89.2272806,60.0349442 Z M68.2526069,59.3547746 C67.8792063,58.9159624 67.7251625,58.3617184 67.8190497,57.7939823 L70.5069756,41.5727075 C70.6618789,40.6381167 71.4638953,39.9598745 72.4141548,39.9598745 L72.5104053,39.9598745 L72.5104053,60.0349442 L69.7264437,60.0349442 C69.1491552,60.0349442 68.6257927,59.7935868 68.2526069,59.3547746 Z M4.72014484,98.7054577 C3.89449548,98.7054577 3.22267513,98.0357819 3.22267513,97.212768 C3.22267513,96.8144319 3.37865261,96.4398675 3.65924019,96.1597472 C3.94348014,95.8774854 4.32010344,95.72222 4.72014484,95.72222 L10.1372469,95.72222 C10.1363875,95.7860394 10.1323055,95.8492164 10.1323055,95.91325 C10.1323055,96.8690425 10.2292006,97.8025625 10.4122485,98.7054577 L4.72014484,98.7054577 Z M24.2641656,106.787612 C18.2487202,106.787612 13.3549806,101.909279 13.3549806,95.91325 C13.3549806,89.9172206 18.2487202,85.038888 24.2641656,85.038888 C30.279611,85.038888 35.1733506,89.9172206 35.1733506,95.91325 C35.1733506,101.909279 30.2798259,106.787612 24.2641656,106.787612 Z M38.1162976,98.7054577 C38.2991307,97.8025625 38.3962406,96.8690425 38.3962406,95.91325 C38.3962406,95.8492164 38.3921585,95.7860394 38.3912992,95.72222 L64.2107278,95.72222 C64.2098684,95.7862536 64.2075051,95.850073 64.2075051,95.9141066 C64.2075051,96.869685 64.3044002,97.8029908 64.4872333,98.7054577 L38.1162976,98.7054577 Z M106.337752,98.2677163 C106.054801,98.5499781 105.679037,98.7052435 105.279425,98.7052435 L92.1906378,98.7052435 C92.3734709,97.8025625 92.470366,96.8692567 92.470366,95.9138925 C92.470366,95.8494305 92.466284,95.7862536 92.4654246,95.7220058 L105.279425,95.7220058 C106.105075,95.7220058 106.776895,96.3906109 106.776895,97.2125539 C106.776895,97.61089 106.621133,97.9856686 106.337752,98.2677163 L106.337752,98.2677163 Z" id="Shape"></path>
                <path d="M100,78.880897 L100,73.119103 C100,70.8479241 98.2057535,69 96.0001001,69 C93.7944468,69 92,70.8477178 92,73.119103 L92,78.880897 C92,81.1522822 93.7944468,83 96.0001001,83 C98.2057535,83 100,81.1520759 100,78.880897 L100,78.880897 Z M95.0046318,78.880897 L95.0046318,73.119103 C95.0046318,72.5539382 95.4510904,72.0939682 96.0003004,72.0939682 C96.5491099,72.0939682 96.9957688,72.5537319 96.9957688,73.119103 L96.9957688,78.880897 C96.9957688,79.4462681 96.5493102,79.9060318 96.0003004,79.9060318 C95.4510904,79.9060318 95.0046318,79.4460618 95.0046318,78.880897 Z" id="Shape"></path>
                <path d="M86,95.5 C86,91.3646531 82.635512,88 78.4998935,88 C74.3642751,88 71,91.3644402 71,95.5 C71,99.6355598 74.364488,103 78.5001065,103 C82.6357249,103 86,99.6355598 86,95.5 Z M74.1935278,95.5 C74.1935278,93.1255393 76.1253992,91.1934825 78.5001065,91.1934825 C80.8748137,91.1934825 82.8066851,93.1253264 82.8066851,95.5 C82.8066851,97.8746736 80.8748137,99.8065175 78.5001065,99.8065175 C76.1253992,99.8065175 74.1935278,97.8746736 74.1935278,95.5 Z" id="Shape"></path>
                <path d="M24.5,88 C20.3644402,88 17,91.3644402 17,95.5 C17,99.6355598 20.3644402,103 24.5,103 C28.6355598,103 32,99.6355598 32,95.5 C32,91.3644402 28.6355598,88 24.5,88 L24.5,88 Z M24.5,99.8065175 C22.1255393,99.8065175 20.1934825,97.8746736 20.1934825,95.5 C20.1934825,93.1255393 22.1253264,91.1934825 24.5,91.1934825 C26.8746736,91.1934825 28.8065175,93.1253264 28.8065175,95.5 C28.8065175,97.8746736 26.8746736,99.8065175 24.5,99.8065175 L24.5,99.8065175 Z" id="Shape"></path>
                <path d="M78.3045717,16.2324607 L78.6751713,16.4350269 C79.3754923,16.8176037 80.1418474,17 80.9003413,17 C82.3838627,17 83.837287,16.300778 84.7044901,15.0318114 L87.2501726,11.3051574 C87.9408355,10.2940615 88.1683612,9.03875839 87.8743522,7.86131531 C87.5803431,6.68387223 86.7854631,5.66670368 85.6938788,5.07049977 L84.7720965,4.56712062 C83.6802876,3.97091671 82.3674665,3.83753533 81.1709913,4.20146046 C79.9747406,4.5651687 78.9781646,5.40059157 78.4370892,6.49301758 L76.4421402,10.5202676 C75.4156916,12.5925588 76.2334814,15.1016468 78.3045717,16.2324607 L78.3045717,16.2324607 Z M79.4812816,11.9241337 L81.4762306,7.89688368 C81.6181815,7.61038482 81.8690662,7.40001094 82.1828405,7.30480049 C82.2998602,7.26923213 82.4195751,7.25144794 82.5381669,7.25144794 C82.7373923,7.25144794 82.934147,7.30111353 83.1136071,7.39914342 L84.0353894,7.90252257 C84.3217618,8.05889325 84.5218856,8.31502887 84.59915,8.6238664 C84.6761898,8.93270393 84.6189153,9.24891539 84.4376584,9.51394311 L81.8922006,13.2403802 C81.553495,13.7359517 80.8686718,13.8953587 80.3338854,13.6032209 C80.3336608,13.6032209 80.3336608,13.6032209 80.3334362,13.6032209 L79.9626119,13.4006547 C79.4273762,13.1083001 79.2160222,12.4598281 79.4812816,11.9241337 Z" id="Shape"></path>
                <path d="M62.3292906,9.02386025 C62.4914732,11.2607584 64.2529679,13 66.3473952,13 C66.3597482,13 66.3717027,13 66.3838565,12.999787 L66.7616185,12.9961653 C68.8717859,12.9759267 70.6233185,11.1957818 70.7488407,8.94333191 L70.9929116,4.56582872 C71.059259,3.37814231 70.6573888,2.20238602 69.8907073,1.34022156 C69.1321946,0.487217725 68.0692409,0 66.9696267,0 C66.9574729,0 66.9457177,0 66.9337632,0.000213037921 L65.9941399,0.00916063059 C64.881575,0.0198125266 63.8122456,0.528760119 63.0601086,1.4056242 C62.3079717,2.28248828 61.9260257,3.46570089 62.0118988,4.65210908 L62.3292906,9.02386025 Z M65.2625249,3.56561568 C65.4597741,3.33553473 65.7291487,3.20749893 66.0208383,3.20472944 L66.9604615,3.19578185 L66.9702244,3.19578185 C67.2583277,3.19578185 67.5259091,3.31849169 67.7247522,3.54218151 C67.9259862,3.76842778 68.0272009,4.06455049 68.0098669,4.37601193 L67.765796,8.75330209 C67.7333196,9.33553473 67.2804435,9.79569663 66.7349201,9.80102258 L66.3571581,9.80464423 C66.3539702,9.80464423 66.3509816,9.80464423 66.3477937,9.80464423 C65.8064544,9.80464423 65.3511874,9.35513421 65.3091474,8.77673626 L64.9917556,4.40498509 C64.9690421,4.09373669 65.0652758,3.79569663 65.2625249,3.56561568 L65.2625249,3.56561568 Z" id="Shape"></path>
                <path d="M48.3917419,15.0932062 C49.2609662,16.3267966 50.6815259,17 52.1293395,17 C52.9101,17 53.699126,16.8041472 54.4135386,16.3943995 L54.7781169,16.1852869 C56.8168065,15.0162563 57.58394,12.4877765 56.5248311,10.4290391 L54.4667063,6.42807631 C53.9082224,5.34229943 52.9018344,4.52258679 51.7053385,4.17892047 C50.5086192,3.83503678 49.2060114,3.99154516 48.131265,4.60801428 L47.223617,5.12840464 C46.1488706,5.74487376 45.3772692,6.77804644 45.1067396,7.96316267 C44.83621,9.1482789 45.0855172,10.4020849 45.7909941,11.4033038 L48.3917419,15.0932062 Z M48.3781149,8.66984148 C48.449154,8.35899845 48.6435064,8.09880327 48.9252057,7.93707794 L49.8328537,7.41668758 C50.0155897,7.31191391 50.2179842,7.25822284 50.4230595,7.25822284 C50.5343095,7.25822284 50.6464531,7.27387368 50.7565861,7.3056101 C51.070454,7.3958198 51.3240057,7.60210654 51.4703285,7.88686484 L53.5284534,11.888045 C53.8023339,12.4201735 53.6039604,13.0738134 53.076975,13.3759615 C53.0767516,13.3759615 53.0767516,13.3759615 53.0765282,13.3761789 L52.7119499,13.5852915 C52.1851879,13.8874396 51.5011568,13.7394088 51.1553436,13.2490158 L48.5548192,9.55867866 C48.3700727,9.29652712 48.3070757,8.98068451 48.3781149,8.66984148 Z" id="Shape"></path>
                <path d="M20.3339951,45.4742898 C18.2150309,47.6020397 17.0310806,50.4364644 17.0006073,53.4552297 C16.9701341,56.4641235 18.0873437,59.3264461 20.1468636,61.5151422 C24.4367253,66.0740851 28.9244485,70.5615665 33.4849213,74.853119 C35.644445,76.8851578 38.460002,78 41.4247063,78 C41.4648366,78 41.5047523,78 41.5448825,77.9993562 C44.5636661,77.9686685 47.398108,76.78494 49.5256562,74.6662032 L49.6660049,74.5258554 C51.7849691,72.3978909 52.9689194,69.5636808 52.9993927,66.5447009 C53.0298659,63.5358071 51.9126563,60.6734845 49.8531364,58.4847885 C45.5619871,53.9247725 41.0744785,49.4372911 36.5150787,45.1468116 C34.326584,43.0873042 31.4687507,41.9709598 28.4551175,42.0005744 C25.4363339,42.0312621 22.601892,43.2149906 20.4743438,45.3337274 L20.3339951,45.4742898 Z M47.3848028,72.2547533 L47.2545404,72.3852296 C44.1211602,75.5052856 38.9338397,75.5606522 35.6907986,72.5090532 C33.8224877,70.7510575 31.9681258,68.9582968 30.1332925,67.1425739 L42.14233,55.1336092 C43.9580639,56.9684314 45.7508355,58.8229966 47.5088418,60.6908671 C50.5606739,63.934103 50.5050924,69.1216067 47.3848028,72.2547533 L47.3848028,72.2547533 Z M22.7454596,47.6151303 C25.8790544,44.494645 31.0663749,44.4399222 34.3092014,47.4913066 C36.1770831,49.2490877 38.031445,51.0416338 39.8662783,52.8573567 L27.8572408,64.8663214 C26.0412923,63.0314993 24.2487353,61.176934 22.4911582,59.3092782 C19.4393261,56.0660422 19.4949076,50.8787531 22.6151972,47.7456065 L22.7454596,47.6151303 Z" id="Shape"></path>
            </g>
        </g>
    </g>
</svg>