<?xml version="1.0" encoding="UTF-8"?>
<svg width="180px" height="200px" viewBox="0 0 180 200" version="1.1" xmlns="http://www.w3.org/2000/svg" xmlns:xlink="http://www.w3.org/1999/xlink">
    <!-- Generator: Sketch 58 (84663) - https://sketch.com -->
    <title>Group</title>
    <desc>Created with Sketch.</desc>
    <g id="Page-1" stroke="none" stroke-width="1" fill="none" fill-rule="evenodd">
        <g id="Group" transform="translate(-27.000000, -9.000000)">
            <path d="M95.1171875,203.355315 C140.680679,203.355315 187.0625,194.581877 171.75,126.937346 C167.446954,107.928201 203.589844,95.1425926 203.589844,62.9021897 C203.589844,42.0662522 192.083779,32.0350022 144.617188,26.7889085 C73.6636342,18.9469932 20,70.9793158 20,120.132658 C20,169.286001 49.5536956,203.355315 95.1171875,203.355315 Z" id="Oval" fill="#F8F4E8" transform="translate(111.794922, 114.677657) rotate(-73.000000) translate(-111.794922, -114.677657) "></path>
            <g id="003-rating" transform="translate(69.000000, 68.000000)" fill="#D6CAA4" fill-rule="nonzero">
                <path d="M50.7727273,16 L32.2272727,16 C30.9469763,16 29.9090909,17.0378854 29.9090909,18.3181818 L29.9090909,29.9090909 L18.3181818,29.9090909 C17.0378854,29.9090909 16,30.9469763 16,32.2272727 L16,50.7727273 C16,52.0530237 17.0378854,53.0909091 18.3181818,53.0909091 L29.9090909,53.0909091 L29.9090909,64.6818182 C29.9090909,65.9621146 30.9469763,67 32.2272727,67 L50.7727273,67 C52.0530237,67 53.0909091,65.9621146 53.0909091,64.6818182 L53.0909091,53.0909091 L64.6818182,53.0909091 C65.9621146,53.0909091 67,52.0530237 67,50.7727273 L67,32.2272727 C67,30.9469763 65.9621146,29.9090909 64.6818182,29.9090909 L53.0909091,29.9090909 L53.0909091,18.3181818 C53.0909091,17.0378854 52.0530237,16 50.7727273,16 Z M62.3636364,34.5454545 L62.3636364,48.4545455 L50.7727273,48.4545455 C49.4924308,48.4545455 48.4545455,49.4924308 48.4545455,50.7727273 L48.4545455,62.3636364 L34.5454545,62.3636364 L34.5454545,50.7727273 C34.5454545,49.4924308 33.5075692,48.4545455 32.2272727,48.4545455 L20.6363636,48.4545455 L20.6363636,34.5454545 L32.2272727,34.5454545 C33.5075692,34.5454545 34.5454545,33.5075692 34.5454545,32.2272727 L34.5454545,20.6363636 L48.4545455,20.6363636 L48.4545455,32.2272727 C48.4545455,33.5075692 49.4924308,34.5454545 50.7727273,34.5454545 L62.3636364,34.5454545 Z" id="Shape"></path>
                <path d="M66.8611096,85 C68.1344324,85 69.1666644,83.971465 69.1666644,82.7027029 L69.1666644,72.1733287 C77.9743504,64.3324509 83.006674,53.1199549 83,41.3513546 C83,18.5506807 64.3826382,0 41.5,0 C29.3126692,-0.00674852333 17.7398604,5.33083225 9.85857217,14.5935864 L13.3722377,17.5685862 C22.3673499,7.01346872 36.5524165,2.39118709 50.0684657,5.61091927 C63.5845149,8.83065146 74.1376063,19.3459453 77.3689119,32.8135847 C80.6002175,46.2812242 75.961321,60.4154847 65.3682629,69.3783796 C64.8524324,69.8150925 64.5552607,70.4556084 64.5555548,71.1300686 L64.5555548,79.6165714 L53.8894818,76.4290716 C53.4482836,76.2975861 52.9777293,76.3003859 52.5381385,76.4371121 C37.8089222,81.0328535 21.7652525,76.0091215 12.3220446,63.8443026 C2.87883668,51.6794837 2.03127371,34.9437893 10.1974887,21.8935352 L6.28755595,19.4578259 C2.171331,26.0231507 -0.00756860884,33.6101927 0,41.3513546 C0,64.1520286 18.6173749,82.7027029 41.5,82.7027029 C45.4706159,82.705678 49.4211377,82.1413083 53.2309577,81.0268246 L66.1997036,84.9035135 C66.4143029,84.9674961 66.6371093,85 66.8611096,85 Z" id="Path"></path>
                <path d="M138,103.454545 L138,94.2424239 C138,92.9704954 136.967774,91.9393936 135.694459,91.9393936 L113.377688,91.9393936 L98.8058056,81.5420755 L98.8058056,64.3030303 C98.8058056,63.0311018 97.7735798,62 96.5002648,62 L89.5836422,62 C81.9472415,62.0084088 75.7588151,68.1900964 75.7503971,75.8181817 L75.7503971,91.9393936 L64.2226929,91.9393936 C60.3862814,91.9377864 56.9499157,94.3097747 55.5947176,97.8949463 C54.2395195,101.480118 55.2488225,105.528915 58.1288603,108.060606 C56.1402732,109.80733 55,112.324528 55,114.969696 C55,117.614865 56.1402732,120.132063 58.1288603,121.878787 C55.2488225,124.410478 54.2395195,128.459275 55.5947176,132.044447 C56.9499157,135.629618 60.3862814,138.001606 64.2226929,138 L135.694459,138 C136.967774,138 138,136.968897 138,135.696969 L138,108.060606 L133.388918,108.060606 L133.388918,133.393939 L114.944592,133.393939 L114.944592,96.5454542 L133.388918,96.5454542 L133.388918,103.454545 L138,103.454545 Z M59.6116112,128.787878 C59.6146285,126.245271 61.6773136,124.184831 64.2226929,124.181818 L75.7503971,124.181818 L75.7503971,119.575757 L64.2226929,119.575757 C61.6760628,119.575757 59.6116112,117.513553 59.6116112,114.969696 C59.6116112,112.425839 61.6760628,110.363636 64.2226929,110.363636 L75.7503971,110.363636 L75.7503971,105.757575 L64.2226929,105.757575 C61.6760628,105.757575 59.6116112,103.695372 59.6116112,101.151515 C59.6116112,98.6076577 61.6760628,96.5454542 64.2226929,96.5454542 L78.055938,96.5454542 C79.329253,96.5454542 80.3614788,95.5143524 80.3614788,94.2424239 L80.3614788,75.8181817 C80.3671964,70.7328353 84.4927522,66.6117719 89.5836422,66.6060606 L94.1947239,66.6060606 L94.1947239,82.7272725 C94.1947718,83.4710995 94.5544604,84.169107 95.1604573,84.6013634 L110.33351,95.4276209 L110.33351,133.393939 L64.2226929,133.393939 C61.6773136,133.390925 59.6146285,131.330486 59.6116112,128.787878 L59.6116112,128.787878 Z" id="Shape"></path>
                <path d="M92.7179623,34.6751486 L98.6788718,40.3324572 L97.2745587,48.2999915 C97.1235953,49.1581545 97.4675655,50.028481 98.1628602,50.5476058 C98.8581549,51.0667307 99.7852186,51.1453906 100.556998,50.7507447 L107.999857,46.9409845 L115.443002,50.7507447 C116.214832,51.1454431 117.141977,51.0667627 117.837298,50.5475574 C118.532619,50.0283522 118.876536,49.1579139 118.725441,48.2997041 L117.321984,40.3324572 L123.282894,34.6751486 C123.921692,34.0687896 124.15864,33.1473915 123.89238,32.3050988 C123.626119,31.4628061 122.903807,30.8487963 122.034425,30.725723 L113.732423,29.5512122 L110.034399,22.254129 C109.644354,21.4844738 108.858625,21 108.000428,21 C107.142231,21 106.356502,21.4844738 105.966458,22.254129 L102.267577,29.5512122 L93.9655746,30.725723 C93.0961927,30.8487963 92.3738806,31.4628061 92.1076201,32.3050988 C91.8413596,33.1473915 92.0783079,34.0687896 92.717106,34.6751486 L92.7179623,34.6751486 Z M104.08034,33.938026 C104.817614,33.8338042 105.458129,33.3742437 105.796627,32.7066144 L108.001284,28.356585 L110.206227,32.7066144 C110.544726,33.3742437 111.185241,33.8338042 111.922515,33.938026 L116.692327,34.6130751 L113.292576,37.8394595 C112.732523,38.3710744 112.47617,39.1509973 112.610685,39.9140359 L113.429868,44.5640872 L109.034254,42.3147855 C108.383987,41.9823114 107.615156,41.9823114 106.96489,42.3147855 L102.569276,44.5643746 L103.388173,39.9137485 C103.522515,39.1507537 103.266061,38.3709557 102.705996,37.8394595 L99.3073875,34.6142246 L104.08034,33.938026 Z" id="Shape"></path>
                <path d="M35.0352817,99.7256299 L26.7332795,98.5511303 L23.0343987,91.254117 C22.6443538,90.4844692 21.8586248,90 21.0004281,90 C20.1422314,90 19.3565025,90.4844692 18.9664576,91.254117 L15.2675768,98.5511303 L6.96557459,99.7256299 C6.09619273,99.848702 5.37388056,100.462706 5.10762008,101.304991 C4.84135959,102.147275 5.07830786,103.068664 5.717106,103.675018 L11.6788718,109.332272 L10.2742733,117.29973 C10.123179,118.157932 10.4670954,119.028361 11.1624163,119.547562 C11.8577372,120.066762 12.7848827,120.145442 13.5567124,119.750747 L20.9998573,115.941023 L28.4427167,119.750747 C29.214496,120.145389 30.1415597,120.06673 30.8368544,119.54761 C31.532149,119.02849 31.8761193,118.158172 31.7251559,117.300017 L30.3216991,109.33141 L36.282894,103.675018 C36.9216921,103.068664 37.1586404,102.147275 36.8923799,101.304991 C36.6261194,100.462706 35.9038073,99.848702 35.0344254,99.7256299 L35.0352817,99.7256299 Z M26.2928618,106.839298 C25.7327972,107.370789 25.4763431,108.15058 25.6106853,108.913567 L26.4295825,113.564149 L22.0339683,111.314581 C21.3837684,110.981831 20.6148045,110.981831 19.9646045,111.314581 L15.5689903,113.563862 L16.388173,108.913855 C16.5226881,108.150823 16.2663358,107.370908 15.7062819,106.839298 L12.3093855,103.612945 L17.0791978,102.937902 C17.8164718,102.833681 18.4569871,102.374125 18.7954853,101.706502 L21.0004281,97.3559398 L23.2050855,101.705928 C23.5435838,102.37355 24.1840991,102.833107 24.9213731,102.937327 L29.6914707,103.61237 L26.2928618,106.839298 Z" id="Shape"></path>
            </g>
        </g>
    </g>
</svg>