<?xml version="1.0" encoding="UTF-8"?>
<svg width="2216px" height="512px" viewBox="0 0 2216 512" version="1.1" xmlns="http://www.w3.org/2000/svg" xmlns:xlink="http://www.w3.org/1999/xlink">
    <!-- Generator: Sketch 58 (84663) - https://sketch.com -->
    <title>Group 2</title>
    <desc>Created with Sketch.</desc>
    <g id="Page-1" stroke="none" stroke-width="1" fill="none" fill-rule="evenodd">
        <g id="Group-2" transform="translate(0.000000, -24.000000)" fill-rule="nonzero">
            <g id="Group" transform="translate(824.000000, 0.000000)">
                <g id="Group-3">
                    <path d="M108.004,232.304 C114.257365,232.304 119.795976,231.768005 124.62,230.696 C129.444024,229.623995 133.999979,228.194676 138.288,226.408 L138.288,196.794 L118.992,196.794 C116.133319,196.794 113.900008,196.034674 112.292,194.516 C110.683992,192.997326 109.88,191.076678 109.88,188.754 L109.88,163.83 L179.292,163.83 L179.292,246.24 C174.289308,249.902685 169.085694,253.051653 163.681,255.687 C158.276306,258.322347 152.514364,260.488658 146.395,262.186 C140.275636,263.883342 133.754368,265.133996 126.831,265.938 C119.907632,266.742004 112.470706,267.144 104.52,267.144 C90.2265952,267.144 77.0053941,264.620359 64.856,259.573 C52.7066059,254.525641 42.1877111,247.557711 33.299,238.669 C24.4102889,229.780289 17.4423586,219.239061 12.395,207.045 C7.34764143,194.850939 4.824,181.607405 4.824,167.314 C4.824,152.752594 7.23597588,139.375061 12.06,127.181 C16.8840241,114.986939 23.7849551,104.468044 32.763,95.624 C41.7410449,86.7799558 52.5949364,79.9013579 65.325,74.988 C78.0550636,70.0746421 92.2812547,67.618 108.004,67.618 C116.133374,67.618 123.771298,68.2879933 130.918,69.628 C138.064702,70.9680067 144.65297,72.7993217 150.683,75.122 C156.71303,77.4446783 162.229308,80.2139839 167.232,83.43 C172.234692,86.6460161 176.701314,90.1299812 180.632,93.882 L167.5,113.848 C166.249327,115.724009 164.753009,117.197995 163.011,118.27 C161.268991,119.342005 159.370677,119.878 157.316,119.878 C154.635987,119.878 151.866681,118.984676 149.008,117.198 C145.434649,115.053989 142.062349,113.200341 138.891,111.637 C135.719651,110.073659 132.48135,108.800672 129.176,107.818 C125.87065,106.835328 122.386685,106.120669 118.724,105.674 C115.061315,105.227331 110.952023,105.004 106.396,105.004 C97.9092909,105.004 90.2713673,106.500318 83.482,109.493 C76.6926327,112.485682 70.9083572,116.706639 66.129,122.156 C61.3496428,127.605361 57.6646796,134.148962 55.074,141.787 C52.4833204,149.425038 51.188,157.933953 51.188,167.314 C51.188,177.676718 52.617319,186.87796 55.476,194.918 C58.334681,202.95804 62.2876414,209.747306 67.335,215.286 C72.3823586,220.824694 78.3676321,225.045652 85.291,227.949 C92.2143679,230.852348 99.7852922,232.304 108.004,232.304 Z M268.804,123.898 C279.345386,123.898 288.948623,125.55065 297.614,128.856 C306.279377,132.16135 313.716302,136.895969 319.925,143.06 C326.133698,149.224031 330.957649,156.705623 334.397,165.505 C337.836351,174.304377 339.556,184.197945 339.556,195.186 C339.556,206.263389 337.836351,216.246289 334.397,225.135 C330.957649,234.023711 326.133698,241.572302 319.925,247.781 C313.716302,253.989698 306.279377,258.768983 297.614,262.119 C288.948623,265.469017 279.345386,267.144 268.804,267.144 C258.17328,267.144 248.503044,265.469017 239.793,262.119 C231.082956,258.768983 223.579031,253.989698 217.281,247.781 C210.982969,241.572302 206.114351,234.023711 202.675,225.135 C199.235649,216.246289 197.516,206.263389 197.516,195.186 C197.516,184.197945 199.235649,174.304377 202.675,165.505 C206.114351,156.705623 210.982969,149.224031 217.281,143.06 C223.579031,136.895969 231.082956,132.16135 239.793,128.856 C248.503044,125.55065 258.17328,123.898 268.804,123.898 Z M268.804,236.324 C278.362714,236.324 285.397644,232.9517 289.909,226.207 C294.420356,219.4623 296.676,209.211402 296.676,195.454 C296.676,181.696598 294.420356,171.468033 289.909,164.768 C285.397644,158.067967 278.362714,154.718 268.804,154.718 C258.977284,154.718 251.786023,158.067967 247.23,164.768 C242.673977,171.468033 240.396,181.696598 240.396,195.454 C240.396,209.211402 242.673977,219.4623 247.23,226.207 C251.786023,232.9517 258.977284,236.324 268.804,236.324 Z M424.244,123.898 C434.785386,123.898 444.388623,125.55065 453.054,128.856 C461.719377,132.16135 469.156302,136.895969 475.365,143.06 C481.573698,149.224031 486.397649,156.705623 489.837,165.505 C493.276351,174.304377 494.996,184.197945 494.996,195.186 C494.996,206.263389 493.276351,216.246289 489.837,225.135 C486.397649,234.023711 481.573698,241.572302 475.365,247.781 C469.156302,253.989698 461.719377,258.768983 453.054,262.119 C444.388623,265.469017 434.785386,267.144 424.244,267.144 C413.61328,267.144 403.943044,265.469017 395.233,262.119 C386.522956,258.768983 379.019031,253.989698 372.721,247.781 C366.422969,241.572302 361.554351,234.023711 358.115,225.135 C354.675649,216.246289 352.956,206.263389 352.956,195.186 C352.956,184.197945 354.675649,174.304377 358.115,165.505 C361.554351,156.705623 366.422969,149.224031 372.721,143.06 C379.019031,136.895969 386.522956,132.16135 395.233,128.856 C403.943044,125.55065 413.61328,123.898 424.244,123.898 Z M424.244,236.324 C433.802714,236.324 440.837644,232.9517 445.349,226.207 C449.860356,219.4623 452.116,209.211402 452.116,195.454 C452.116,181.696598 449.860356,171.468033 445.349,164.768 C440.837644,158.067967 433.802714,154.718 424.244,154.718 C414.417284,154.718 407.226023,158.067967 402.67,164.768 C398.113977,171.468033 395.836,181.696598 395.836,195.454 C395.836,209.211402 398.113977,219.4623 402.67,226.207 C407.226023,232.9517 414.417284,236.324 424.244,236.324 Z M615.328,265 C612.73732,265 610.571009,264.419339 608.829,263.258 C607.086991,262.096661 605.85867,260.354678 605.144,258.032 L601.928,247.446 C599.158653,250.394015 596.255349,253.073988 593.218,255.486 C590.180651,257.898012 586.897684,259.974991 583.369,261.717 C579.840316,263.459009 576.043687,264.798995 571.979,265.737 C567.914313,266.675005 563.51469,267.144 558.78,267.144 C551.543964,267.144 544.844031,265.536016 538.68,262.32 C532.515969,259.103984 527.200689,254.458697 522.734,248.384 C518.267311,242.309303 514.761013,234.872377 512.215,226.073 C509.668987,217.273623 508.396,207.246056 508.396,195.99 C508.396,185.627282 509.825319,176.001711 512.684,167.113 C515.542681,158.224289 519.584974,150.541699 524.811,144.065 C530.037026,137.588301 536.31263,132.518685 543.638,128.856 C550.96337,125.193315 559.047956,123.362 567.892,123.362 C575.038702,123.362 581.090975,124.411656 586.049,126.511 C591.007025,128.610344 595.49598,131.357316 599.516,134.752 L599.516,64.402 L641.056,64.402 L641.056,265 L615.328,265 Z M573.252,235.252 C576.289349,235.252 579.036321,234.96167 581.493,234.381 C583.949679,233.80033 586.205323,232.974005 588.26,231.902 C590.314677,230.829995 592.257658,229.490008 594.089,227.882 C595.920342,226.273992 597.729324,224.398011 599.516,222.254 L599.516,163.294 C596.299984,159.809983 592.883018,157.375674 589.265,155.991 C585.646982,154.606326 581.82802,153.914 577.808,153.914 C573.966647,153.914 570.438016,154.673326 567.222,156.192 C564.005984,157.710674 561.214345,160.144983 558.847,163.495 C556.479655,166.845017 554.626007,171.199973 553.286,176.56 C551.945993,181.920027 551.276,188.396629 551.276,195.99 C551.276,203.31537 551.811995,209.479308 552.884,214.482 C553.956005,219.484692 555.452324,223.526985 557.373,226.609 C559.293676,229.691015 561.593987,231.901993 564.274,233.242 C566.954013,234.582007 569.94665,235.252 573.252,235.252 Z M895.388,265 L849.828,265 L849.828,182.456 L770.5,182.456 L770.5,265 L724.94,265 L724.94,69.762 L770.5,69.762 L770.5,151.368 L849.828,151.368 L849.828,69.762 L895.388,69.762 L895.388,265 Z M1023.492,265 C1019.56131,265 1016.59101,264.464005 1014.581,263.392 C1012.57099,262.319995 1010.89601,260.086684 1009.556,256.692 L1006.608,249.054 C1003.12398,252.002015 999.774016,254.592655 996.558,256.826 C993.341984,259.059345 990.014351,260.957659 986.575,262.521 C983.135649,264.084341 979.473019,265.245663 975.587,266.005 C971.700981,266.764337 967.39069,267.144 962.656,267.144 C956.313302,267.144 950.551359,266.317675 945.37,264.665 C940.188641,263.012325 935.789018,260.578016 932.171,257.362 C928.552982,254.145984 925.761343,250.148357 923.796,245.369 C921.830657,240.589643 920.848,235.073365 920.848,228.82 C920.848,223.906642 922.098654,218.859359 924.6,213.678 C927.101346,208.496641 931.433969,203.784355 937.598,199.541 C943.762031,195.297645 952.069948,191.746681 962.522,188.888 C972.974052,186.029319 986.150587,184.421335 1002.052,184.064 L1002.052,178.168 C1002.052,170.038626 1000.37702,164.165018 997.027,160.547 C993.676983,156.928982 988.920031,155.12 982.756,155.12 C977.842642,155.12 973.822682,155.655995 970.696,156.728 C967.829875,157.710672 965.245279,158.805926 962.942148,160.01379 L962.321,160.346 C959.864321,161.686007 957.474678,162.891995 955.152,163.964 C952.829322,165.036005 950.060016,165.572 946.844,165.572 C943.985319,165.572 941.55101,164.879674 939.541,163.495 C937.53099,162.110326 935.945339,160.390677 934.784,158.336 L927.28,145.338 C935.677375,137.923296 944.990282,132.407018 955.219,128.789 C965.447718,125.170982 976.413275,123.362 988.116,123.362 C996.513375,123.362 1004.0843,124.72432 1010.829,127.449 C1017.5737,130.17368 1023.29098,133.970309 1027.981,138.839 C1032.67102,143.707691 1036.26665,149.491966 1038.768,156.192 C1041.26935,162.892033 1042.52,170.217294 1042.52,178.168 L1042.52,265 L1023.492,265 Z M975.788,239.674 C981.148027,239.674 985.83798,238.736009 989.858,236.86 C993.87802,234.983991 997.942646,231.946688 1002.052,227.748 L1002.052,208.452 C993.743958,208.809335 986.910027,209.523995 981.55,210.596 C976.189973,211.668005 971.946682,213.007992 968.82,214.616 C965.693318,216.224008 963.527006,218.055323 962.321,220.11 C961.114994,222.164677 960.512,224.397988 960.512,226.81 C960.512,231.54469 961.80732,234.872324 964.398,236.793 C966.98868,238.713676 970.785308,239.674 975.788,239.674 Z M1072,265 L1072,64.402 L1113.54,64.402 L1113.54,140.782 C1118.72136,135.689975 1124.59497,131.603015 1131.161,128.521 C1137.72703,125.438985 1145.43196,123.898 1154.276,123.898 C1161.51204,123.898 1168.21197,125.461318 1174.376,128.588 C1180.54003,131.714682 1185.85531,136.29297 1190.322,142.323 C1194.78869,148.35303 1198.29499,155.74529 1200.841,164.5 C1203.38701,173.25471 1204.66,183.215278 1204.66,194.382 C1204.66,204.834052 1203.20835,214.481956 1200.305,223.326 C1197.40165,232.170044 1193.33703,239.852634 1188.111,246.374 C1182.88497,252.895366 1176.6317,257.987315 1169.351,261.65 C1162.0703,265.312685 1154.00804,267.144 1145.164,267.144 C1141.05465,267.144 1137.36968,266.742004 1134.109,265.938 C1130.84832,265.133996 1127.85568,263.995007 1125.131,262.521 C1122.40632,261.046993 1119.90501,259.282677 1117.627,257.228 C1115.34899,255.173323 1113.13801,252.940012 1110.994,250.528 L1109.52,257.496 C1108.89466,260.354681 1107.75567,262.319995 1106.103,263.392 C1104.45033,264.464005 1102.28401,265 1099.604,265 L1072,265 Z M1139.804,155.12 C1136.76665,155.12 1134.01968,155.41033 1131.563,155.991 C1129.10632,156.57167 1126.82834,157.397995 1124.729,158.47 C1122.62966,159.542005 1120.68668,160.904325 1118.9,162.557 C1117.11332,164.209675 1115.32668,166.107989 1113.54,168.252 L1113.54,227.212 C1116.66668,230.696017 1120.06132,233.130326 1123.724,234.515 C1127.38668,235.899674 1131.22798,236.592 1135.248,236.592 C1139.08935,236.592 1142.61798,235.832674 1145.834,234.314 C1149.05002,232.795326 1151.84165,230.361017 1154.209,227.011 C1156.57635,223.660983 1158.42999,219.306027 1159.77,213.946 C1161.11001,208.585973 1161.78,202.064705 1161.78,194.382 C1161.78,187.05663 1161.24401,180.892692 1160.172,175.89 C1159.09999,170.887308 1157.60368,166.845015 1155.683,163.763 C1153.76232,160.680985 1151.46201,158.470007 1148.782,157.13 C1146.10199,155.789993 1143.10935,155.12 1139.804,155.12 Z M1270.32,126.042 L1270.32,265 L1228.78,265 L1228.78,126.042 L1270.32,126.042 Z M1275.144,87.986 C1275.144,91.2913499 1274.47401,94.3956521 1273.134,97.299 C1271.79399,100.202348 1269.96268,102.748322 1267.64,104.937 C1265.31732,107.125678 1262.61502,108.86766 1259.533,110.163 C1256.45098,111.45834 1253.16802,112.106 1249.684,112.106 C1246.28932,112.106 1243.11801,111.45834 1240.17,110.163 C1237.22199,108.86766 1234.60901,107.125678 1232.331,104.937 C1230.05299,102.748322 1228.26634,100.202348 1226.971,97.299 C1225.67566,94.3956521 1225.028,91.2913499 1225.028,87.986 C1225.028,84.5913164 1225.67566,81.4200147 1226.971,78.472 C1228.26634,75.5239853 1230.05299,72.9333445 1232.331,70.7 C1234.60901,68.4666555 1237.22199,66.7246729 1240.17,65.474 C1243.11801,64.2233271 1246.28932,63.598 1249.684,63.598 C1253.16802,63.598 1256.45098,64.2233271 1259.533,65.474 C1262.61502,66.7246729 1265.31732,68.4666555 1267.64,70.7 C1269.96268,72.9333445 1271.79399,75.5239853 1273.134,78.472 C1274.47401,81.4200147 1275.144,84.5913164 1275.144,87.986 Z M1352.596,267.144 C1345.9853,267.144 1340.15636,266.183676 1335.109,264.263 C1330.06164,262.342324 1325.81835,259.617684 1322.379,256.089 C1318.93965,252.560316 1316.32668,248.294692 1314.54,243.292 C1312.75332,238.289308 1311.86,232.706031 1311.86,226.542 L1311.86,154.718 L1300.068,154.718 C1297.92399,154.718 1296.09267,154.025674 1294.574,152.641 C1293.05533,151.256326 1292.296,149.224013 1292.296,146.544 L1292.296,130.33 L1314.406,126.042 L1322.58,92.14 C1323.65201,87.8519786 1326.68931,85.708 1331.692,85.708 L1353.4,85.708 L1353.4,126.31 L1387.168,126.31 L1387.168,154.718 L1353.4,154.718 L1353.4,223.728 C1353.4,226.944016 1354.18166,229.601656 1355.745,231.701 C1357.30834,233.800344 1359.56399,234.85 1362.512,234.85 C1364.03067,234.85 1365.30366,234.693668 1366.331,234.381 C1367.35834,234.068332 1368.25166,233.711002 1369.011,233.309 C1369.77034,232.906998 1370.485,232.549668 1371.155,232.237 C1371.825,231.924332 1372.60666,231.768 1373.5,231.768 C1374.75067,231.768 1375.75566,232.05833 1376.515,232.639 C1377.27434,233.21967 1378.056,234.135327 1378.86,235.386 L1391.456,255.084 C1386.09597,259.10402 1380.06603,262.11899 1373.366,264.129 C1366.66597,266.13901 1359.7427,267.144 1352.596,267.144 Z" id="GoodHabit" fill="#4E72D0"></path>
                    <path d="M14.2202148,449 L14.2202148,383.238281 L42.5244141,383.238281 C52.7145692,383.238281 60.5199924,385.941298 65.940918,391.347412 C71.3618435,396.753526 74.0722656,404.551544 74.0722656,414.741699 C74.0722656,425.58355 71.198922,434.003632 65.4521484,440.002197 C59.7053749,446.000762 51.6629749,449 41.324707,449 L14.2202148,449 Z M27.9057617,439.668945 L38.1254883,439.668945 C45.3237665,439.668945 50.692772,437.676859 54.232666,433.692627 C57.77256,429.708395 59.5424805,423.658081 59.5424805,415.541504 C59.5424805,409.261525 58.1206197,404.033224 55.2768555,399.856445 C53.3217676,396.983059 50.9668106,394.998378 48.2119141,393.902344 C45.4570175,392.80631 41.443223,392.258301 36.1704102,392.258301 L27.9057617,392.258301 L27.9057617,439.668945 Z M126.380371,449 L126.380371,383.238281 L150.996582,383.238281 C164.356349,383.238281 171.036133,388.673937 171.036133,399.54541 C171.036133,403.603699 169.903088,407.299056 167.636963,410.631592 C165.370838,413.964128 162.253112,416.519034 158.283691,418.296387 L179.789551,449 L163.126953,449 L146.819824,422.117676 L139.266113,422.117676 L139.266113,449 L126.380371,449 Z M139.266113,413.097656 L142.420898,413.097656 C152.344451,413.097656 157.306152,409.083862 157.306152,401.056152 C157.306152,395.190889 152.877648,392.258301 144.020508,392.258301 L139.266113,392.258301 L139.266113,413.097656 Z M228.631836,383.238281 L242.317383,383.238281 L242.317383,423.539551 C242.317383,429.908398 243.368967,434.507229 245.472168,437.336182 C247.575369,440.165135 250.967099,441.57959 255.647461,441.57959 C260.120465,441.57959 263.356679,440.231784 265.356201,437.536133 C267.355723,434.840481 268.355469,430.500844 268.355469,424.51709 L268.355469,383.238281 L280.263672,383.238281 L280.263672,423.628418 C280.263672,429.701039 279.686041,434.329493 278.530762,437.513916 C277.375483,440.698339 275.272313,443.4606 272.221191,445.800781 C268.044413,449.029639 262.431025,450.644043 255.380859,450.644043 C247.827111,450.644043 241.75458,448.925961 237.163086,445.489746 C233.993474,443.119943 231.779222,440.313249 230.520264,437.06958 C229.261306,433.825912 228.631836,429.301136 228.631836,423.495117 L228.631836,383.238281 Z M388.691406,447.444824 C380.456339,449.577647 373.347035,450.644043 367.363281,450.644043 C356.017847,450.644043 347.301544,447.659616 341.214111,441.690674 C335.126679,435.721731 332.083008,427.16835 332.083008,416.030273 C332.083008,404.981065 335.126679,396.479522 341.214111,390.525391 C347.301544,384.571259 355.973414,381.594238 367.22998,381.594238 C374.428259,381.594238 381.567185,382.438468 388.646973,384.126953 L388.646973,394.835449 C380.441528,392.021308 373.7025,390.614258 368.429688,390.614258 C361.46839,390.614258 356.091979,392.835915 352.300293,397.279297 C348.508607,401.722678 346.612793,408.017375 346.612793,416.163574 C346.612793,424.043171 348.641907,430.226784 352.700195,434.7146 C356.758484,439.202415 362.357061,441.446289 369.496094,441.446289 C371.066089,441.446289 372.902659,441.224123 375.005859,440.779785 L375.005859,419.140625 L388.691406,419.140625 L388.691406,447.444824 Z M440.333008,448.422363 L440.333008,437.13623 C447.412796,440.098485 453.470515,441.57959 458.506348,441.57959 C462.03143,441.57959 464.808502,440.794604 466.837646,439.224609 C468.866791,437.654615 469.881348,435.521823 469.881348,432.826172 C469.881348,430.693349 469.244473,428.893806 467.970703,427.42749 C466.696934,425.961174 464.282733,424.220876 460.728027,422.206543 L456.329102,419.762695 C450.434215,416.44497 446.27231,413.268 443.843262,410.231689 C441.414213,407.195379 440.199707,403.648132 440.199707,399.589844 C440.199707,394.168918 442.191793,389.81447 446.176025,386.526367 C450.160258,383.238265 455.425586,381.594238 461.972168,381.594238 C467.215358,381.594238 473.124967,382.349602 479.701172,383.860352 L479.701172,394.391113 C472.976854,391.873197 467.659688,390.614258 463.749512,390.614258 C460.728012,390.614258 458.306406,391.288161 456.484619,392.635986 C454.662833,393.983812 453.751953,395.753733 453.751953,397.945801 C453.751953,399.752776 454.388828,401.337558 455.662598,402.700195 C456.936367,404.062832 459.335757,405.736481 462.86084,407.721191 L467.570801,410.342773 L468.701679,410.985982 C474.432397,414.293202 478.424705,417.352047 480.678711,420.162598 C483.078137,423.154475 484.277832,426.797993 484.277832,431.093262 C484.277832,437.195506 482.011741,441.979475 477.479492,445.445312 C472.947243,448.91115 466.69698,450.644043 458.728516,450.644043 C453.455703,450.644043 447.323928,449.90349 440.333008,448.422363 Z M552.31543,449 L552.31543,392.258301 L528.765625,392.258301 L528.765625,383.238281 L589.595215,383.238281 L589.595215,392.258301 L566.04541,392.258301 L566.04541,449 L552.31543,449 Z M667.630371,450.644043 C657.647574,450.644043 649.664418,447.5041 643.680664,441.224121 C637.69691,434.944142 634.705078,426.575899 634.705078,416.119141 C634.705078,405.543892 637.711721,397.146027 643.725098,390.925293 C649.738474,384.704559 657.854929,381.594238 668.074707,381.594238 C678.23524,381.594238 686.329478,384.704559 692.357666,390.925293 C698.385854,397.146027 701.399902,405.499459 701.399902,415.98584 C701.399902,426.709201 698.385854,435.16631 692.357666,441.357422 C686.329478,447.548534 678.087129,450.644043 667.630371,450.644043 Z M667.808105,441.57959 C673.673369,441.57959 678.316633,439.276472 681.738037,434.670166 C685.159441,430.06386 686.870117,423.821003 686.870117,415.941406 C686.870117,408.29879 685.152035,402.167015 681.71582,397.545898 C678.279605,392.924782 673.732613,390.614258 668.074707,390.614258 C662.357556,390.614258 657.788347,392.924782 654.366943,397.545898 C650.94554,402.167015 649.234863,408.343223 649.234863,416.074707 C649.234863,423.746946 650.938134,429.915748 654.344727,434.581299 C657.751319,439.246849 662.239067,441.57959 667.808105,441.57959 Z M753.708008,449 L753.708008,383.238281 L778.324219,383.238281 C791.683986,383.238281 798.36377,388.673937 798.36377,399.54541 C798.36377,403.603699 797.230724,407.299056 794.9646,410.631592 C792.698475,413.964128 789.580749,416.519034 785.611328,418.296387 L807.117188,449 L790.45459,449 L774.147461,422.117676 L766.59375,422.117676 L766.59375,449 L753.708008,449 Z M766.59375,413.097656 L769.748535,413.097656 C779.672087,413.097656 784.633789,409.083862 784.633789,401.056152 C784.633789,395.190889 780.205285,392.258301 771.348145,392.258301 L766.59375,392.258301 L766.59375,413.097656 Z M856.492676,449 L856.492676,383.238281 L897.59375,383.238281 L897.59375,392.258301 L870.178223,392.258301 L870.178223,410.609375 L892.661621,410.609375 L892.661621,419.407227 L870.178223,419.407227 L870.178223,439.668945 L899.682129,439.668945 L899.682129,449 L856.492676,449 Z" id="DRUGSTORE" fill="#7C92A3"></path>
                </g>
            </g>
            <g id="leaf" transform="translate(512.000000, 356.500000) rotate(-360.000000) translate(-512.000000, -356.500000) translate(356.000000, 177.000000)">
                <path d="M56.256785,358.695916 L15.6809414,274.644229 C-14.8172508,211.469116 3.04862843,137.409963 54.6583765,94.5401625 C86.784991,67.8537797 117.436044,39.4333344 145.564543,8.54744376 L152.714804,0.695916413 L169.341742,22.7024281 C189.857908,49.8558891 205.513237,78.7294281 214.762369,107.986139 L56.256785,358.695916 Z" id="Path" fill="#00AA95"></path>
                <path d="M305.015801,105.104796 L299.592818,78.0637792 C272.79027,141.087988 204.043825,174.576258 164.638778,218.063779 C95.7277448,294.114542 56.3423077,358.063779 56.3423077,358.063779 L97.1431973,358.063779 C278.4892,358.063779 331.259452,235.966296 305.015801,105.104796 Z" id="Path" fill="#00CC76"></path>
                <path d="M299.017935,78.0157682 L289.144459,81.9625102 C264.816893,91.6871874 240.017062,100.110257 214.89959,107.505595 L214.89959,107.506294 C199.918662,111.917646 184.82509,115.962899 169.650359,119.700741 C104.402302,135.773462 56.0179346,194.607096 56.0179346,264.725519 L56.0179346,358.015768 C56.0179346,358.015768 225.418843,251.256013 299.017935,78.0157682 L299.017935,78.0157682 Z" id="Path" fill="#A5E887"></path>
            </g>
            <g id="vitamins" transform="translate(0.000000, 24.000000)">
                <path d="M461.906,174.965 L461.906,458.163 C461.906,487.512 438.029,511.39 408.679,511.39 L241.978,511.39 C212.629,511.39 188.751,487.513 188.751,458.163 L188.751,174.655 C188.751,160.431 194.293,147.056 204.356,137.003 C214.409,126.96 227.763,121.428 241.978,121.428 L242.028,121.428 C246.319,121.428 250.011,118.367 250.791,114.146 L256.453,83.646 C257.963,75.493 265.786,70.112 273.938,71.622 L325.334,71.602 L375.71,71.582 C383.843,70.052 391.695,75.403 393.235,83.546 L399.067,114.466 C399.857,118.607 403.478,121.658 407.7,121.718 L409.431,121.748 C438.369,122.148 461.906,146.026 461.906,174.965 Z" id="Path" fill="#CAE6FF"></path>
                <path d="M461.906,174.965 L461.906,458.163 C461.906,487.512 438.029,511.39 408.679,511.39 L325.333,511.39 L325.333,71.602 L375.709,71.582 C383.842,70.052 391.694,75.403 393.234,83.546 L399.066,114.466 C399.856,118.607 403.477,121.658 407.699,121.718 L409.43,121.748 C438.369,122.148 461.906,146.026 461.906,174.965 Z" id="Path" fill="#98CDF4"></path>
                <path d="M420.994,22.307 L420.994,79.025 C420.994,91.329 410.991,101.332 398.687,101.332 L251.971,101.332 C239.667,101.332 229.664,91.329 229.664,79.025 L229.664,22.307 C229.664,10.003 239.667,0 251.971,0 L398.687,0 C410.991,0 420.994,10.003 420.994,22.307 Z" id="Path" fill="#5179DF"></path>
                <path d="M420.994,22.307 L420.994,79.025 C420.994,91.329 410.991,101.332 398.687,101.332 L325.334,101.332 L325.334,0 L398.687,0 C410.991,0 420.994,10.003 420.994,22.307 Z" id="Path" fill="#4E72D0"></path>
                <rect id="Rectangle" fill="#F37113" x="188.755" y="206.505" width="273.155" height="222.85"></rect>
                <rect id="Rectangle" fill="#EF6501" x="325.338" y="206.505" width="136.573" height="222.85"></rect>
                <g id="Group" transform="translate(241.000000, 254.000000)" fill="#F88938">
                    <path d="M152.415,30.023 L15.182,30.023 C6.895,30.023 0.177,23.305 0.177,15.018 C0.177,6.731 6.895,0.013 15.182,0.013 L152.415,0.013 C160.702,0.013 167.42,6.731 167.42,15.018 C167.42,23.305 160.702,30.023 152.415,30.023 Z" id="Path"></path>
                    <path d="M152.415,79.638 L15.182,79.638 C6.895,79.638 0.177,72.92 0.177,64.633 C0.177,56.346 6.895,49.628 15.182,49.628 L152.415,49.628 C160.702,49.628 167.42,56.346 167.42,64.633 C167.42,72.92 160.702,79.638 152.415,79.638 Z" id="Path"></path>
                    <path d="M152.415,128.021 L15.182,128.021 C6.895,128.021 0.177,121.303 0.177,113.016 C0.177,104.729 6.895,98.011 15.182,98.011 L152.415,98.011 C160.702,98.011 167.42,104.729 167.42,113.016 C167.42,121.303 160.702,128.021 152.415,128.021 Z" id="Path"></path>
                </g>
                <path d="M183.8,370.866 L165.334,415.81 L144.988,465.336 C133.054,494.394 104.895,512 75.266,512 C65.753,512 56.09,510.179 46.757,506.348 C8.365,490.573 -10.031,446.509 5.734,408.117 L26.08,358.602 L44.556,313.648 C52.188,295.052 66.623,280.548 85.169,272.795 C103.725,265.053 124.181,264.993 142.787,272.635 C181.179,288.41 199.574,332.474 183.8,370.866 Z" id="Path" fill="#5AC199"></path>
                <path d="M183.8,370.866 L165.334,415.81 L26.08,358.602 L44.556,313.648 C52.188,295.052 66.623,280.548 85.169,272.795 C103.725,265.053 124.181,264.993 142.787,272.635 C181.179,288.41 199.574,332.474 183.8,370.866 Z" id="Path" fill="#38AC7F"></path>
            </g>
        </g>
    </g>
</svg>