<?xml version="1.0" encoding="UTF-8"?>
<svg width="206px" height="206px" viewBox="0 0 206 206" version="1.1" xmlns="http://www.w3.org/2000/svg" xmlns:xlink="http://www.w3.org/1999/xlink">
    <!-- Generator: Sketch 58 (84663) - https://sketch.com -->
    <title>Group 2</title>
    <desc>Created with Sketch.</desc>
    <g id="Page-1" stroke="none" stroke-width="1" fill="none" fill-rule="evenodd">
        <g id="Group-2" transform="translate(3.000000, 3.000000)">
            <circle id="Oval" stroke="#E9F0F7" stroke-width="6" fill="#F7FBFC" cx="100" cy="100" r="100"></circle>
            <g id="005-customer-service" transform="translate(46.000000, 46.000000)" fill="#92AFCC" fill-rule="nonzero">
                <rect id="Rectangle" x="7" y="84" width="9" height="4"></rect>
                <path d="M104.347826,47.6521642 C104.346191,49.1642656 103.120798,50.3896581 101.608696,50.3912936 L87.9130435,50.3912936 C87.4287284,50.3912759 86.9642431,50.583655 86.6217717,50.9261086 L77.7554348,59.7933551 L75.0375326,51.63988 C74.7888686,50.8939464 74.0906373,50.3909405 73.3043478,50.3912936 L66,50.3912936 L66,54.043466 L71.9881957,54.043466 L75.22425,63.751397 C75.4243976,64.3517699 75.9211275,64.8057103 76.5370537,64.9511127 C77.1529799,65.0965151 77.8002782,64.9126468 78.2477935,64.4651685 L88.6692717,54.043466 L101.608696,54.043466 C105.136847,54.0394408 107.995975,51.1803141 108,47.6521642 L108,23 L104.347826,23 L104.347826,47.6521642 Z" id="Path"></path>
                <path d="M101.724138,4 L56,4 L56,7.55555556 L101.724138,7.55555556 C103.208928,7.55714774 104.412187,8.7501229 104.413793,10.2222222 L104.413793,20 L108,20 L108,10.2222222 C107.996047,6.7874083 105.188562,4.00391879 101.724138,4 L101.724138,4 Z" id="Path"></path>
                <path d="M103.692219,74.6667 L90.5695528,70.292475 C90.3860096,70.2312552 90.1937964,70.2000295 90.000313,70.2 L68.4006981,70.2 C68.2072147,70.2000295 68.0150015,70.2312552 67.8314583,70.292475 L64.8007623,71.3025 L64.8007623,71.28 C64.7978803,69.5452286 64.0819303,67.8879375 62.8207976,66.69675 C66.6543969,60.1594687 64.7716027,51.7700208 58.5121245,47.49795 C60.2861714,43.3968581 59.3565028,38.6270369 56.1721662,35.4924 C57.0974865,34.367846 57.6026169,32.9563196 57.6008907,31.5 L57.6008907,27.9 C57.5991246,25.4670173 56.1983116,23.2519422 54.0009549,22.2075 L54.0009549,15.3 C53.9914074,6.85400125 47.1470759,0.00954764373 38.7012278,0 L26.1014524,0 C17.6556043,0.00954764373 10.8112727,6.85400125 10.8017253,15.3 L10.8017253,22.2075 C8.6043686,23.2519422 7.20355558,25.4670173 7.20178947,27.9 L7.20178947,31.5 C7.20036517,32.9558969 7.70556657,34.3669223 8.63073899,35.49105 C5.44657985,38.6260605 4.51695199,43.3959409 6.29078071,47.497275 C0.0312233487,51.7692759 -1.85167223,60.1587375 1.98188255,66.696075 C0.720579769,67.8874238 0.00461464462,69.5449939 0.00191786061,71.28 L0.00191786061,79.2 L3.60185366,79.2 L3.60185366,71.28 C3.60351799,70.227119 4.21522497,69.2706242 5.17030069,68.8275 L18.6329356,62.6139 L14.4941344,75.03075 C14.2890284,75.6459393 14.4306809,76.3239029 14.8649472,76.8054981 C15.2992135,77.2870932 15.9589561,77.4978655 16.591997,77.35725 L19.8015648,76.644 L19.8015648,104.4 L3.60185366,104.4 L3.60185366,82.8 L0.00191786061,82.8 L0.00191786061,106.2 C0.00191786061,107.194113 0.80779094,108 1.80188576,108 L98.1001685,108 C101.577856,107.996032 104.396088,105.177749 104.400056,101.7 L104.400056,97.2639 C104.40466,95.5921017 103.740318,93.9879306 102.555089,92.8089 L101.545532,91.8 L101.700104,91.8 C105.177791,91.7960322 107.996024,88.9777491 108,85.5 L108,80.643375 C108.002485,77.9308397 106.266318,75.5220538 103.692219,74.6667 Z M54.7087923,74.6667 C52.1346929,75.5220538 50.3985264,77.9308397 50.4010191,80.643375 L50.4010191,85.5 C50.4049868,88.9777491 53.2232197,91.7960322 56.7009068,91.8 L56.855479,91.8 L55.846147,92.809125 C54.6609181,93.9881556 53.9965763,95.5923267 54.0011799,97.264125 L54.0011799,101.7 C53.9998157,102.63404 54.2073788,103.556559 54.6086691,104.4 L45.0011154,104.4 L45.0011154,76.644 L48.2106832,77.35725 C48.8437241,77.4978655 49.5034667,77.2870932 49.937733,76.8054981 C50.3719993,76.3239029 50.5136518,75.6459393 50.3085458,75.03075 L46.1686196,62.614125 L59.6323795,68.8275 C60.5874552,69.2706242 61.1991622,70.227119 61.2008265,71.28 L61.2008265,72.503325 L54.7087923,74.6667 Z M39.3453913,104.4 L36.0550499,83.012175 L39.1246702,75.3381 L41.4011796,75.8439 L41.4011796,104.4 L39.3453913,104.4 Z M29.2387965,74.546775 L32.4013401,73.845 L35.5638837,74.5479 L32.9825047,81 L31.8201755,81 L29.2387965,74.546775 Z M19.8015362,38.5974 L31.7693264,43.085475 L33.0333538,39.714525 L19.8015362,34.7526 L19.8015362,25.2 L32.4013401,25.2 C33.033605,25.2000061 33.6195123,24.8682707 33.9448126,24.3261 L37.8012438,17.898525 L41.657675,24.3261 C41.9829753,24.8682707 42.5688827,25.2000061 43.2011475,25.2 L45.0011347,25.2 L45.0011347,39.497625 C45.006323,41.3649836 43.9555284,43.0748422 42.2872138,43.9137 L33.6082186,48.30885 C32.8452403,48.693029 31.9458535,48.69528 31.1809619,48.314925 L22.537741,43.99335 C20.8563491,43.1596672 19.7951859,41.4425434 19.8015362,39.5658 L19.8015362,38.5974 Z M51.3010031,25.2 C52.7914771,25.2016121 53.9993429,26.4094994 54.0009549,27.9 L54.0009549,31.5 C53.9993429,32.9905006 52.7914771,34.1983879 51.3010031,34.2 L48.6010512,34.2 L48.6010512,25.2 L51.3010031,25.2 Z M35.7204809,70.893675 L42.498935,62.985375 L45.8880496,73.153125 L35.7204809,70.893675 Z M26.2020256,49.850325 L29.5711156,51.5349 C31.3557703,52.4225332 33.4543716,52.4171972 35.2344896,51.5205 L38.5921047,49.820175 L41.2045331,58.963725 L32.4013401,69.2343 L23.5981471,58.963725 L26.2020256,49.850325 Z M61.2008926,59.4 C61.2076228,61.3335849 60.6896552,63.2327814 59.7021283,64.895175 L44.6595715,57.952125 L41.8628714,48.164625 L43.9137098,47.126025 C46.7956994,45.6771949 48.6107289,42.7233304 48.6010512,39.497625 L48.6010512,37.8 L51.3010031,37.8 C51.8978006,37.8004822 52.4916174,37.7158553 53.0645216,37.548675 C55.9988993,39.8686344 56.6697137,44.0484211 54.6086691,47.170125 C54.3253241,47.5978519 54.2379692,48.1261682 54.3685516,48.6223388 C54.499134,49.1185093 54.8352423,49.5353744 55.2924319,49.7682 C58.9245997,51.6033819 61.2109045,55.3304908 61.2008926,59.4 L61.2008926,59.4 Z M26.1014524,3.6 L38.7012278,3.6 C45.1598115,3.6073157 50.3937035,8.84130111 50.4010191,15.3 L50.4010191,21.6 L44.2201543,21.6 L39.3447163,13.4739 C39.0194231,12.9317182 38.4335145,12.5999711 37.8012438,12.5999711 C37.1689731,12.5999711 36.5830645,12.9317182 36.2577713,13.4739 L31.3823333,21.6 L14.4016611,21.6 L14.4016611,15.3 C14.4089766,8.84130111 19.6428687,3.6073157 26.1014524,3.6 Z M10.8017253,27.9 C10.8033373,26.4094994 12.0112031,25.2016121 13.5016771,25.2 L16.201629,25.2 L16.201629,34.2 L13.5016771,34.2 C12.0112031,34.1983879 10.8033373,32.9905006 10.8017253,31.5 L10.8017253,27.9 Z M9.5102483,49.7682 C9.9674757,49.5354155 10.3036333,49.1185685 10.4342597,48.6223941 C10.5648862,48.1262196 10.477565,47.5978806 10.1942361,47.170125 C8.13325354,44.0484525 8.80395539,39.8687579 11.7381586,37.548675 C12.3110738,37.7158043 12.9048833,37.8004301 13.5016771,37.8 L16.201629,37.8 L16.201629,39.5658 C16.1906159,42.8074136 18.0236178,45.7732891 20.9278947,47.2131 L22.9258591,48.212325 L20.1431087,57.952125 L5.10055194,64.895175 C3.58480875,62.324955 3.19878663,59.2425282 4.03390545,56.3778917 C4.86902426,53.5132553 6.85100832,51.1211908 9.5104733,49.7682 L9.5102483,49.7682 Z M22.3037452,62.985375 L29.0821993,70.893675 L18.9146306,73.153125 L22.3037452,62.985375 Z M23.4015006,75.8439 L25.67801,75.3381 L28.7476303,83.012175 L25.4572889,104.4 L23.4015006,104.4 L23.4015006,75.8439 Z M29.099524,104.4 L32.1455197,84.6 L32.6571605,84.6 L35.7031562,104.4 L29.099524,104.4 Z M72.0006339,97.2 C72.0006339,93.2235498 75.2241263,90 79.2005055,90 C83.1768848,90 86.4003772,93.2235498 86.4003772,97.2 C86.4003772,101.17645 83.1768848,104.4 79.2005055,104.4 C75.2259767,104.395536 72.0050978,101.1746 72.0006339,97.2 Z M100.800128,101.7 C100.798508,103.190501 99.5906425,104.398388 98.1001685,104.4 L87.2434371,104.4 C91.1216766,100.072111 90.879997,93.4512467 86.6965402,89.4176419 C82.5130834,85.3840372 75.8879277,85.3840372 71.7044709,89.4176419 C67.5210141,93.4512467 67.2793345,100.072111 71.157574,104.4 L60.3008426,104.4 C58.8103686,104.398388 57.6025028,103.190501 57.6008804,101.7 L57.6008804,97.2639 C57.5989064,96.5474283 57.8836951,95.8599531 58.3917516,95.354775 L61.9466882,91.799775 C64.425654,91.7568814 66.6483562,90.2622791 67.623337,87.98265 L69.1427349,84.437325 C69.5673979,83.4434606 70.5443432,82.7990885 71.6251156,82.799999 L86.7758955,82.799999 C87.8562245,82.7991455 88.8328066,83.4430991 89.2576012,84.436425 L90.7769991,87.98175 C91.7516398,90.2618194 93.9744144,91.7569108 96.4536479,91.799999 L100.008584,95.355 C100.516833,95.8600118 100.801866,96.5474087 100.800128,97.2639 L100.800128,101.7 Z M104.400058,85.5 C104.398444,86.9905006 103.190578,88.1983879 101.700104,88.2000018 L96.5674958,88.2000018 C95.4871846,88.2007949 94.5106324,87.5568611 94.0857901,86.563575 L92.5663922,83.01825 C91.5751713,80.7005957 89.2965789,79.1980932 86.7758955,79.2 L71.6251156,79.2 C69.1048409,79.198544 66.8268042,80.7009719 65.8357439,83.01825 L64.316346,86.563575 C63.8913432,87.5572374 62.9142352,88.2012458 61.8335152,88.2000018 L56.7009068,88.2000018 C55.2104328,88.1983879 54.002567,86.9905006 54.0009533,85.5 L54.0009533,80.643375 C53.9996857,79.4811832 54.7432056,78.4489416 55.845922,78.081975 L68.6931929,73.8 L89.7078182,73.8 L102.555089,78.081975 C103.657805,78.4489416 104.401325,79.4811832 104.400058,80.643375 L104.400058,85.5 Z" id="Shape"></path>
                <rect id="Rectangle" x="23" y="27" width="4" height="6"></rect>
                <rect id="Rectangle" x="37" y="27" width="4" height="6"></rect>
                <path d="M81.125,14 L73.875,14 C72.8739839,14 72.0625,14.8114839 72.0625,15.8125 L72.0625,23.0625 L64.8125,23.0625 C63.8114839,23.0625 63,23.8739839 63,24.875 L63,32.125 C63,33.1260161 63.8114839,33.9375 64.8125,33.9375 L72.0625,33.9375 L72.0625,41.1875 C72.0625,42.1885161 72.8739839,43 73.875,43 L81.125,43 C82.1260161,43 82.9375,42.1885161 82.9375,41.1875 L82.9375,33.9375 L90.1875,33.9375 C91.1885161,33.9375 92,33.1260161 92,32.125 L92,24.875 C92,23.8739839 91.1885161,23.0625 90.1875,23.0625 L82.9375,23.0625 L82.9375,15.8125 C82.9375,14.8114839 82.1260161,14 81.125,14 Z M88.375,26.6875 L88.375,30.3125 L81.125,30.3125 C80.1239839,30.3125 79.3125,31.1239839 79.3125,32.125 L79.3125,39.375 L75.6875,39.375 L75.6875,32.125 C75.6875,31.1239839 74.8760161,30.3125 73.875,30.3125 L66.625,30.3125 L66.625,26.6875 L73.875,26.6875 C74.8760161,26.6875 75.6875,25.8760161 75.6875,24.875 L75.6875,17.625 L79.3125,17.625 L79.3125,24.875 C79.3125,25.8760161 80.1239839,26.6875 81.125,26.6875 L88.375,26.6875 Z" id="Shape"></path>
            </g>
        </g>
    </g>
</svg>