<?xml version="1.0" encoding="UTF-8"?>
<svg width="173px" height="200px" viewBox="0 0 173 200" version="1.1" xmlns="http://www.w3.org/2000/svg" xmlns:xlink="http://www.w3.org/1999/xlink">
    <!-- Generator: Sketch 58 (84663) - https://sketch.com -->
    <title>Group</title>
    <desc>Created with Sketch.</desc>
    <g id="Page-1" stroke="none" stroke-width="1" fill="none" fill-rule="evenodd">
        <g id="Group" transform="translate(-27.000000, -9.000000)">
            <path d="M95.1171875,203.355315 C140.680679,203.355315 187.0625,194.581877 171.75,126.937346 C167.446954,107.928201 203.589844,95.1425926 203.589844,62.9021897 C203.589844,42.0662522 192.083779,32.0350022 144.617188,26.7889085 C73.6636342,18.9469932 20,70.9793158 20,120.132658 C20,169.286001 49.5536956,203.355315 95.1171875,203.355315 Z" id="Oval" fill="#E8F8EF" transform="translate(111.794922, 114.677657) rotate(-73.000000) translate(-111.794922, -114.677657) "></path>
            <g id="002-medical-check" transform="translate(83.000000, 68.000000)" fill="#A7D6BD" fill-rule="nonzero">
                <path d="M37.9895591,133.960743 L8.44599621,133.960743 C6.00585708,133.960743 4.02088178,131.96683 4.02088178,129.515703 L4.02088178,44.0194937 C4.02088178,42.9039254 3.12100844,42 2.01044089,42 C0.899873342,42 0,42.9039254 0,44.0194937 L0,129.515972 C0,134.193927 3.78901093,138 8.44599621,138 L37.9895591,138 C39.1001267,138 40,137.096075 40,135.980506 C40,134.864938 39.0998586,133.960743 37.9895591,133.960743 Z" id="Path"></path>
                <path d="M109.975902,100.039128 C109.974831,98.9123561 109.076236,98 107.967718,98 C107.967183,98 107.966647,98 107.966112,98 C106.856791,98.0008163 105.958464,98.9153492 105.959535,100.042393 L105.983366,129.431526 C105.983366,131.905744 104.000619,133.918478 101.56322,133.918478 L48.0081833,133.918478 C46.8988629,133.918478 46,134.831923 46,135.959239 C46,137.086555 46.8988629,138 48.0081833,138 L101.563488,138 C106.215244,138 110,134.156295 110,129.429893 L109.975902,100.039128 Z" id="Path"></path>
                <path d="M2.0214395,36.5200408 C3.13808268,36.5200408 4.042879,35.6150999 4.042879,34.4982782 L4.042879,8.49355935 C4.042879,6.03967872 6.0387136,4.04352514 8.4922021,4.04352514 L101.442572,4.04352514 C103.892826,4.04352514 105.887583,6.03725261 105.889739,8.48762884 L105.95712,90.9798548 C105.957929,92.0961373 106.862725,93 107.97856,93 L107.980177,93 C109.09682,93 110,92.0931721 110,90.97662 L109.932618,8.48439402 C109.928845,3.80603543 106.120183,0 101.442572,0 L8.4922021,0 C3.80973964,0 0,3.81034853 0,8.49355935 L0,34.4982782 C0,35.6148303 0.90479632,36.5200408 2.0214395,36.5200408 Z" id="Path"></path>
                <path d="M72.9581865,125.816235 C74.609788,127.266617 76.7839984,127.855131 78.9227555,127.430897 C79.7132342,127.274121 80.522884,127.430361 81.2022755,127.870943 C82.3556917,128.618109 83.6637895,129 84.9860687,129 C85.7731334,129 86.5654505,128.864663 87.3328188,128.590774 C89.3893766,127.856471 90.975849,126.229213 91.6851789,124.127071 C91.6851789,124.127071 91.6851789,124.127071 91.6854416,124.126803 C91.9472712,123.350425 92.4848493,122.713136 93.1986437,122.332585 C95.1299329,121.302954 96.4698075,119.459425 96.8747637,117.275009 C97.2797199,115.090324 96.6922445,112.874553 95.2625548,111.19584 C94.7344309,110.575971 94.4623592,109.78271 94.4962368,108.961577 C94.588153,106.73991 93.6934151,104.634015 92.0415509,103.183633 C90.3899494,101.733252 88.2154763,101.144738 86.0772445,101.56924 C85.2870284,101.726284 84.4776412,101.569508 83.7977245,101.129194 C81.9588766,99.9374261 79.7245268,99.6747923 77.6671812,100.409095 C75.6106234,101.143398 74.024151,102.770655 73.3145584,104.873066 C73.0524662,105.649443 72.5151507,106.286732 71.8013563,106.667283 C69.8700671,107.696915 68.5301925,109.540443 68.1252363,111.725128 C67.7202801,113.909812 68.3077555,116.125584 69.7374452,117.804028 C70.2655691,118.423898 70.5376408,119.217159 70.5037632,120.038292 C70.411847,122.259959 71.3065849,124.365853 72.9581865,125.816235 L72.9581865,125.816235 Z M71.9962185,112.472562 C72.1755863,111.504033 72.7693645,110.68692 73.625235,110.230527 C75.2356056,109.372411 76.447848,107.934625 77.0392627,106.182215 C77.3538785,105.250133 78.0571682,104.52923 78.9687136,104.203617 C79.8807842,103.877737 80.8708522,103.99485 81.6862796,104.52253 C83.2194407,105.515714 85.0451577,105.868394 86.8288558,105.515178 C87.7769051,105.326779 88.7401861,105.587805 89.4723638,106.230722 C90.2045414,106.873638 90.6013565,107.807328 90.5606507,108.791937 C90.4839664,110.643773 91.0979662,112.434239 92.2894619,113.833166 C92.9231579,114.577116 93.1834119,115.559045 93.0040441,116.527842 C92.8244137,117.496104 92.2308981,118.313216 91.3745024,118.76961 C89.7643944,119.628261 88.552152,121.065779 87.9607373,122.817922 C87.6463842,123.750004 86.9430945,124.471175 86.0315491,124.796519 C85.1194784,125.123204 84.1294104,125.005822 83.3142456,124.477875 C82.1694959,123.7358 80.8611354,123.351229 79.5296646,123.351229 C79.0776998,123.351229 78.6231089,123.395716 78.1714068,123.485226 C77.224408,123.672554 76.2598139,123.4126 75.5278989,122.769415 C74.7957212,122.126766 74.3989062,121.193076 74.4396119,120.2082 C74.5162962,118.356363 73.9022964,116.565898 72.7105381,115.166971 C72.0768421,114.42302 71.8165881,113.440823 71.9962185,112.472562 L71.9962185,112.472562 Z" id="Shape"></path>
                <path d="M52.2949604,42.9213498 L57.6121696,42.9994461 C57.6286546,42.9997231 57.6448737,43 57.6613587,43 C58.5395836,43 59.3656947,42.6474589 59.9929222,42.0035797 C60.631317,41.3477923 60.9833515,40.4723936 60.9833515,39.5382842 L60.9833515,36.7306942 L63.6765214,36.7306942 C64.574156,36.7306942 65.4154227,36.3637523 66.0450432,35.6977182 C66.6746637,35.0314071 67.0136697,34.1496389 66.9995777,33.2149756 L66.9163551,27.6759534 C66.888171,25.797211 65.3973423,24.2685173 63.5932987,24.2685173 L60.9836174,24.2685173 L60.9836174,21.5395774 C60.9836174,19.6572348 59.5135279,18.1047245 57.7068254,18.0784155 L52.3896162,18.0003192 C51.4882591,17.987857 50.6477901,18.3406751 50.0091295,18.9961856 C49.3707346,19.651973 49.0187002,20.5273717 49.0187002,21.4614811 L49.0187002,24.2687942 L46.3986492,24.2687942 C44.591415,24.2687942 43.1008522,25.7999803 43.0755929,27.6814921 L43.0003469,33.2205144 C42.9875843,34.1543468 43.3273879,35.0350073 43.9570085,35.6996567 C44.586629,36.3645831 45.427098,36.7309711 46.3236691,36.7309711 L49.0189661,36.7309711 L49.0189661,39.4601879 C49.0181684,41.3425305 50.4882579,42.8953177 52.2949604,42.9213498 L52.2949604,42.9213498 Z M46.9968951,32.5769121 L47.053529,28.4228532 L51.0123213,28.4228532 C52.1138913,28.4228532 53.0064741,27.4931748 53.0064741,26.3458237 L53.0064741,22.163794 L56.9947799,22.2225047 L56.9947799,26.3458237 C56.9947799,27.4931748 57.8873627,28.4228532 58.9889327,28.4228532 L62.9384189,28.4228532 L63.0009024,32.5769121 L58.9889327,32.5769121 C57.8873627,32.5769121 56.9947799,33.5065905 56.9947799,34.6539416 L56.9947799,38.8362482 L53.0064741,38.7775375 L53.0064741,34.6539416 C53.0064741,33.5065905 52.1138913,32.5769121 51.0123213,32.5769121 L46.9968951,32.5769121 Z" id="Shape"></path>
                <path d="M70.7339645,17.6344083 C71.4739349,16.8166864 71.4110947,15.5537574 70.5936391,14.8135207 C66.4512426,11.0646746 61.0909172,9 55.5,9 C43.0933136,9 33,19.0933136 33,31.5 C33,43.9066864 43.0933136,54 55.5,54 C67.9066864,54 78,43.9066864 78,31.5 C78,28.6421006 77.4709172,25.8568935 76.4276627,23.2213314 C76.0218639,22.1956509 74.8609172,21.6937278 73.8357692,22.0995266 C72.8100888,22.5055917 72.3081657,23.6660059 72.7139645,24.6914201 C73.5713609,26.8567456 74.0061834,29.1474852 74.0061834,31.4997337 C74.0061834,41.7038166 65.7043491,50.0056509 55.5002663,50.0056509 C45.2961834,50.0056509 36.9943491,41.7038166 36.9943491,31.4997337 C36.9943491,21.2956509 45.2961834,12.9938166 55.5002663,12.9938166 C60.098787,12.9938166 64.5071893,14.691568 67.9133432,17.7744675 C68.7307988,18.5144379 69.9939941,18.4515976 70.7339645,17.6344083 L70.7339645,17.6344083 Z" id="Path"></path>
                <path d="M50.1207231,125.919335 L55.9793963,125.919335 C57.0955778,125.919335 58,125.057519 58,123.99392 C58,122.93032 57.0955778,122.068504 55.9793963,122.068504 L50.1207231,122.068504 C49.7316895,122.068504 49.3779491,121.748372 49.2798825,121.307067 L48.4834952,117.72374 C48.0106739,115.596028 46.1412113,114.11012 43.9368674,114.11012 C41.6840289,114.11012 39.7574506,115.700257 39.3557546,117.891636 L38.1864985,124.276314 C38.0938202,124.782056 37.7020924,125.148912 37.2548655,125.148912 C36.7979396,125.148912 36.3978601,124.760749 36.3175748,124.243197 L35.1768766,113.888569 C34.9319794,111.663046 32.9897751,110 30.6474912,110 C30.6299793,110 30.6119286,110.000257 30.5944167,110.000257 C28.4078541,110.023875 26.5427021,111.52955 26.159865,113.581016 L24.6958703,121.420281 C24.5794835,121.803824 24.2130807,122.068248 23.7903704,122.068248 L18.0206037,122.068248 C16.9044222,122.068248 16,122.930064 16,123.993663 C16,125.057263 16.9044222,125.919079 18.0206037,125.919079 L23.7903704,125.919079 C26.1030187,125.919079 28.0956034,124.422646 28.636317,122.279787 C28.6457465,122.242305 28.6538289,122.204824 28.6611031,122.167086 L30.1382991,114.255425 C30.1816747,114.023862 30.3923563,113.853655 30.6394088,113.851088 C30.6415641,113.850831 30.6437195,113.850831 30.6453359,113.850831 C30.9099003,113.850831 31.129742,114.038752 31.1572222,114.290596 L32.3014228,124.676544 C32.3033087,124.693231 32.305464,124.710431 32.3076193,124.727118 C32.644656,127.162897 34.7714088,129 37.2543267,129 C39.6701605,129 41.7360258,127.291771 42.1668185,124.9384 L43.3360745,118.553979 C43.3977703,118.216133 43.6558687,117.960951 43.9360591,117.960951 C44.2076283,117.960951 44.4571055,118.196622 44.5293084,118.521632 L45.3256957,122.104959 C45.8254583,124.350507 47.7970288,125.919335 50.1207231,125.919335 L50.1207231,125.919335 Z" id="Path"></path>
                <path d="M29.0967727,57.3173772 C28.1915615,56.7133648 26.9918591,56.9969643 26.418921,57.9516583 L22.5346385,64.4177262 L20.4659541,61.6482683 C19.8027019,60.7606565 18.5822971,60.6076764 17.7404869,61.3060401 C16.8981592,62.0049492 16.7529838,63.2904183 17.4157185,64.1780301 L21.1819974,69.2198288 C21.5512759,69.7139463 22.1141216,70 22.7069858,70 C22.7401096,70 22.7734922,69.9991819 22.8068747,69.9972731 C23.435968,69.9631866 24.0102001,69.6095053 24.3471312,69.0485783 L29.6989529,60.1389192 C30.2721498,59.1850433 30.0025014,57.9213895 29.0967727,57.3173772 Z" id="Path"></path>
                <path d="M91.9893423,57 L39.0106577,57 C37.8999704,57 37,57.8952 37,59 C37,60.1048 37.8999704,61 39.0106577,61 L91.9893423,61 C93.1000296,61 94,60.1048 94,59 C94,57.8952 93.0997615,57 91.9893423,57 Z" id="Path"></path>
                <path d="M39.0183367,69 L63.9816633,69 C65.0965925,69 66,68.1048 66,67 C66,65.8952 65.0965925,65 63.9816633,65 L39.0183367,65 C37.9034075,65 37,65.8952 37,67 C37,68.1048 37.9034075,69 39.0183367,69 L39.0183367,69 Z" id="Path"></path>
                <path d="M29.0967727,73.3173705 C28.1915615,72.7133708 26.9918591,72.9969644 26.418921,73.9516383 L22.5346385,80.4178433 L20.4659541,77.6484435 C19.8027019,76.7608503 18.5822971,76.6078734 17.7404869,77.3062224 C16.8981592,78.0051169 16.7529838,79.290559 17.4157185,80.1781522 L21.1819974,85.2198451 C21.5512759,85.7139523 22.1141216,86 22.7069858,86 C22.7401096,86 22.7734922,85.9991819 22.8068747,85.9972731 C23.435968,85.9631874 24.0102001,85.6095135 24.3471312,85.0485983 L29.6989529,76.1388533 C30.2721498,75.1847248 30.0025014,73.9213702 29.0967727,73.3173705 L29.0967727,73.3173705 Z" id="Path"></path>
                <path d="M91.0579696,75 L78.9420304,75 C77.8692528,75 77,75.8952 77,77 C77,78.1048 77.8692528,79 78.9420304,79 L91.0579696,79 C92.1307472,79 93,78.1048 93,77 C93,75.8952 92.1304883,75 91.0579696,75 Z" id="Path"></path>
                <path d="M71,77 C71,75.8952 70.0762387,75 68.9361901,75 L37.0638099,75 C35.9237613,75 35,75.8952 35,77 C35,78.1048 35.9237613,79 37.0638099,79 L68.9361901,79 C70.0759635,79 71,78.1048 71,77 Z" id="Path"></path>
                <path d="M39.0183367,82 C37.9034075,82 37,82.8952 37,84 C37,85.1048 37.9034075,86 39.0183367,86 L63.9816633,86 C65.0965925,86 66,85.1048 66,84 C66,82.8952 65.0965925,82 63.9816633,82 L39.0183367,82 Z" id="Path"></path>
                <path d="M29.0967727,89.3173772 C28.1915615,88.7133648 26.9918591,88.9969643 26.418921,89.9516583 L22.5346385,96.4177262 L20.4659541,93.6482683 C19.8024431,92.7603838 18.5820383,92.6076764 17.7404869,93.3060401 C16.8981592,94.0049492 16.7529838,95.2904183 17.4157185,96.1780301 L21.1819974,101.219829 C21.5512759,101.713946 22.1141216,102 22.7069858,102 C22.7401096,102 22.7734922,101.999182 22.8068747,101.997273 C23.435968,101.963187 24.0102001,101.609505 24.3471312,101.048578 L29.6989529,92.1389192 C30.2721498,91.1850433 30.0025014,89.9213895 29.0967727,89.3173772 Z" id="Path"></path>
                <path d="M94,93 C94,91.8952 93.1000296,91 91.9893423,91 L39.0106577,91 C37.8999704,91 37,91.8952 37,93 C37,94.1048 37.8999704,95 39.0106577,95 L91.9893423,95 C93.0997615,95 94,94.1045333 94,93 Z" id="Path"></path>
                <path d="M39.0183367,98 C37.9034075,98 37,98.8952 37,100 C37,101.1048 37.9034075,102 39.0183367,102 L63.9816633,102 C65.0965925,102 66,101.1048 66,100 C66,98.8952 65.0965925,98 63.9816633,98 L39.0183367,98 Z" id="Path"></path>
            </g>
        </g>
    </g>
</svg>